<?xml version="1.0" encoding="UTF-8" standalone="no"?>
<!DOCTYPE svg PUBLIC "-//W3C//DTD SVG 1.1//EN"
 "http://www.w3.org/Graphics/SVG/1.1/DTD/svg11.dtd">
<!-- Generated by graphviz version 2.40.1 (20161225.0304)
 -->
<!-- Title: dependencies Pages: 1 -->
<svg width="734pt" height="211pt"
 viewBox="0.00 0.00 734.00 211.00" xmlns="http://www.w3.org/2000/svg" xmlns:xlink="http://www.w3.org/1999/xlink">
<g id="graph0" class="graph" transform="scale(1 1) rotate(0) translate(4 207)">
<title>dependencies</title>
<polygon fill="#ffffff" stroke="transparent" points="-4,4 -4,-207 730,-207 730,4 -4,4"/>
<text text-anchor="start" x="342.0091" y="-42.4" font-family="sans-serif" font-weight="bold" font-size="14.00" fill="#000000">Legend</text>
<polygon fill="#ffffb3" stroke="transparent" points="129,-10 129,-30 149,-30 149,-10 129,-10"/>
<text text-anchor="start" x="152.629" y="-15.4" font-family="sans-serif" font-size="14.00" fill="#000000"> &#160;Declarations</text>
<polygon fill="#8dd3c7" stroke="transparent" points="242,-10 242,-30 262,-30 262,-10 242,-10"/>
<text text-anchor="start" x="265.7251" y="-15.4" font-family="sans-serif" font-size="14.00" fill="#000000"> &#160;Module</text>
<polygon fill="#80b1d3" stroke="transparent" points="328,-10 328,-30 348,-30 348,-10 328,-10"/>
<text text-anchor="start" x="351.7812" y="-15.4" font-family="sans-serif" font-size="14.00" fill="#000000"> &#160;Bootstrap</text>
<polygon fill="#fdb462" stroke="transparent" points="425,-10 425,-30 445,-30 445,-10 425,-10"/>
<text text-anchor="start" x="448.6732" y="-15.4" font-family="sans-serif" font-size="14.00" fill="#000000"> &#160;Providers</text>
<polygon fill="#fb8072" stroke="transparent" points="521,-10 521,-30 541,-30 541,-10 521,-10"/>
<text text-anchor="start" x="544.7258" y="-15.4" font-family="sans-serif" font-size="14.00" fill="#000000"> &#160;Exports</text>
<g id="clust1" class="cluster">
<title>cluster_OfferModule</title>
<polygon fill="none" stroke="#000000" stroke-dasharray="1,5" points="8,-70 8,-195 718,-195 718,-70 8,-70"/>
</g>
<g id="clust2" class="cluster">
<title>cluster_OfferModule_declarations</title>
<polygon fill="none" stroke="#000000" points="174,-78 174,-130 710,-130 710,-78 174,-78"/>
</g>
<g id="clust6" class="cluster">
<title>cluster_OfferModule_imports</title>
<polygon fill="none" stroke="#000000" points="16,-78 16,-130 166,-130 166,-78 16,-78"/>
</g>
<!-- CreateBuyOfferComponent -->
<g id="node1" class="node">
<title>CreateBuyOfferComponent</title>
<polygon fill="#ffffb3" stroke="#000000" points="701.5043,-122 530.4957,-122 530.4957,-86 701.5043,-86 701.5043,-122"/>
<text text-anchor="middle" x="616" y="-99.8" font-family="Times,serif" font-size="14.00" fill="#000000">CreateBuyOfferComponent</text>
</g>
<!-- OfferModule -->
<g id="node4" class="node">
<title>OfferModule</title>
<polygon fill="#8dd3c7" stroke="#000000" points="384.8529,-187 381.8529,-191 360.8529,-191 357.8529,-187 295.1471,-187 295.1471,-151 384.8529,-151 384.8529,-187"/>
<text text-anchor="middle" x="340" y="-164.8" font-family="Times,serif" font-size="14.00" fill="#000000">OfferModule</text>
</g>
<!-- CreateBuyOfferComponent&#45;&gt;OfferModule -->
<g id="edge1" class="edge">
<title>CreateBuyOfferComponent&#45;&gt;OfferModule</title>
<path fill="none" stroke="#000000" d="M616,-122.1061C616,-141.3391 616,-169 616,-169 616,-169 394.9584,-169 394.9584,-169"/>
<polygon fill="#000000" stroke="#000000" points="394.9585,-165.5001 384.9584,-169 394.9584,-172.5001 394.9585,-165.5001"/>
</g>
<!-- CreateSellOfferComponent -->
<g id="node2" class="node">
<title>CreateSellOfferComponent</title>
<polygon fill="#ffffb3" stroke="#000000" points="511.9454,-122 342.0546,-122 342.0546,-86 511.9454,-86 511.9454,-122"/>
<text text-anchor="middle" x="427" y="-99.8" font-family="Times,serif" font-size="14.00" fill="#000000">CreateSellOfferComponent</text>
</g>
<!-- CreateSellOfferComponent&#45;&gt;OfferModule -->
<g id="edge2" class="edge">
<title>CreateSellOfferComponent&#45;&gt;OfferModule</title>
<path fill="none" stroke="#000000" d="M363.4769,-122.1061C363.4769,-122.1061 363.4769,-140.991 363.4769,-140.991"/>
<polygon fill="#000000" stroke="#000000" points="359.9769,-140.9909 363.4769,-150.991 366.9769,-140.991 359.9769,-140.9909"/>
</g>
<!-- OfferMainComponent -->
<g id="node3" class="node">
<title>OfferMainComponent</title>
<polygon fill="#ffffb3" stroke="#000000" points="323.6853,-122 182.3147,-122 182.3147,-86 323.6853,-86 323.6853,-122"/>
<text text-anchor="middle" x="253" y="-99.8" font-family="Times,serif" font-size="14.00" fill="#000000">OfferMainComponent</text>
</g>
<!-- OfferMainComponent&#45;&gt;OfferModule -->
<g id="edge3" class="edge">
<title>OfferMainComponent&#45;&gt;OfferModule</title>
<path fill="none" stroke="#000000" d="M309.3331,-122.1061C309.3331,-122.1061 309.3331,-140.991 309.3331,-140.991"/>
<polygon fill="#000000" stroke="#000000" points="305.8332,-140.9909 309.3331,-150.991 312.8332,-140.991 305.8332,-140.9909"/>
</g>
<!-- OfferRoutingModule -->
<g id="node5" class="node">
<title>OfferRoutingModule</title>
<polygon fill="#8dd3c7" stroke="#000000" points="158.4706,-122 155.4706,-126 134.4706,-126 131.4706,-122 23.5294,-122 23.5294,-86 158.4706,-86 158.4706,-122"/>
<text text-anchor="middle" x="91" y="-99.8" font-family="Times,serif" font-size="14.00" fill="#000000">OfferRoutingModule</text>
</g>
<!-- OfferRoutingModule&#45;&gt;OfferModule -->
<g id="edge4" class="edge">
<title>OfferRoutingModule&#45;&gt;OfferModule</title>
<path fill="none" stroke="#000000" d="M91,-122.1061C91,-141.3391 91,-169 91,-169 91,-169 284.908,-169 284.908,-169"/>
<polygon fill="#000000" stroke="#000000" points="284.908,-172.5001 294.908,-169 284.9079,-165.5001 284.908,-172.5001"/>
</g>
</g>
</svg>
