<?xml version="1.0" encoding="UTF-8" standalone="no"?>
<!DOCTYPE svg PUBLIC "-//W3C//DTD SVG 1.1//EN"
 "http://www.w3.org/Graphics/SVG/1.1/DTD/svg11.dtd">
<!-- Generated by graphviz version 2.40.1 (20161225.0304)
 -->
<!-- Title: dependencies Pages: 1 -->
<svg width="851pt" height="211pt"
 viewBox="0.00 0.00 851.00 211.00" xmlns="http://www.w3.org/2000/svg" xmlns:xlink="http://www.w3.org/1999/xlink">
<g id="graph0" class="graph" transform="scale(1 1) rotate(0) translate(4 207)">
<title>dependencies</title>
<polygon fill="#ffffff" stroke="transparent" points="-4,4 -4,-207 847,-207 847,4 -4,4"/>
<text text-anchor="start" x="400.5091" y="-42.4" font-family="sans-serif" font-weight="bold" font-size="14.00" fill="#000000">Legend</text>
<polygon fill="#ffffb3" stroke="transparent" points="187.5,-10 187.5,-30 207.5,-30 207.5,-10 187.5,-10"/>
<text text-anchor="start" x="211.129" y="-15.4" font-family="sans-serif" font-size="14.00" fill="#000000"> &#160;Declarations</text>
<polygon fill="#8dd3c7" stroke="transparent" points="300.5,-10 300.5,-30 320.5,-30 320.5,-10 300.5,-10"/>
<text text-anchor="start" x="324.2251" y="-15.4" font-family="sans-serif" font-size="14.00" fill="#000000"> &#160;Module</text>
<polygon fill="#80b1d3" stroke="transparent" points="386.5,-10 386.5,-30 406.5,-30 406.5,-10 386.5,-10"/>
<text text-anchor="start" x="410.2812" y="-15.4" font-family="sans-serif" font-size="14.00" fill="#000000"> &#160;Bootstrap</text>
<polygon fill="#fdb462" stroke="transparent" points="483.5,-10 483.5,-30 503.5,-30 503.5,-10 483.5,-10"/>
<text text-anchor="start" x="507.1732" y="-15.4" font-family="sans-serif" font-size="14.00" fill="#000000"> &#160;Providers</text>
<polygon fill="#fb8072" stroke="transparent" points="579.5,-10 579.5,-30 599.5,-30 599.5,-10 579.5,-10"/>
<text text-anchor="start" x="603.2258" y="-15.4" font-family="sans-serif" font-size="14.00" fill="#000000"> &#160;Exports</text>
<g id="clust1" class="cluster">
<title>cluster_OfferModule</title>
<polygon fill="none" stroke="#000000" stroke-dasharray="1,5" points="8,-70 8,-195 835,-195 835,-70 8,-70"/>
</g>
<g id="clust2" class="cluster">
<title>cluster_OfferModule_declarations</title>
<polygon fill="none" stroke="#000000" points="291,-78 291,-130 827,-130 827,-78 291,-78"/>
</g>
<g id="clust6" class="cluster">
<title>cluster_OfferModule_imports</title>
<polygon fill="none" stroke="#000000" points="16,-78 16,-130 283,-130 283,-78 16,-78"/>
</g>
<!-- CreateBuyOfferComponent -->
<g id="node1" class="node">
<title>CreateBuyOfferComponent</title>
<polygon fill="#ffffb3" stroke="#000000" points="818.5043,-122 647.4957,-122 647.4957,-86 818.5043,-86 818.5043,-122"/>
<text text-anchor="middle" x="733" y="-99.8" font-family="Times,serif" font-size="14.00" fill="#000000">CreateBuyOfferComponent</text>
</g>
<!-- OfferModule -->
<g id="node4" class="node">
<title>OfferModule</title>
<polygon fill="#8dd3c7" stroke="#000000" points="414.8529,-187 411.8529,-191 390.8529,-191 387.8529,-187 325.1471,-187 325.1471,-151 414.8529,-151 414.8529,-187"/>
<text text-anchor="middle" x="370" y="-164.8" font-family="Times,serif" font-size="14.00" fill="#000000">OfferModule</text>
</g>
<!-- CreateBuyOfferComponent&#45;&gt;OfferModule -->
<g id="edge1" class="edge">
<title>CreateBuyOfferComponent&#45;&gt;OfferModule</title>
<path fill="none" stroke="#000000" d="M733,-122.2843C733,-143.3211 733,-175 733,-175 733,-175 424.875,-175 424.875,-175"/>
<polygon fill="#000000" stroke="#000000" points="424.875,-171.5001 414.875,-175 424.875,-178.5001 424.875,-171.5001"/>
</g>
<!-- CreateSellOfferComponent -->
<g id="node2" class="node">
<title>CreateSellOfferComponent</title>
<polygon fill="#ffffb3" stroke="#000000" points="628.9454,-122 459.0546,-122 459.0546,-86 628.9454,-86 628.9454,-122"/>
<text text-anchor="middle" x="544" y="-99.8" font-family="Times,serif" font-size="14.00" fill="#000000">CreateSellOfferComponent</text>
</g>
<!-- CreateSellOfferComponent&#45;&gt;OfferModule -->
<g id="edge2" class="edge">
<title>CreateSellOfferComponent&#45;&gt;OfferModule</title>
<path fill="none" stroke="#000000" d="M544,-122.0225C544,-139.3734 544,-163 544,-163 544,-163 425.2622,-163 425.2622,-163"/>
<polygon fill="#000000" stroke="#000000" points="425.2623,-159.5001 415.2622,-163 425.2622,-166.5001 425.2623,-159.5001"/>
</g>
<!-- OfferMainComponent -->
<g id="node3" class="node">
<title>OfferMainComponent</title>
<polygon fill="#ffffb3" stroke="#000000" points="440.6853,-122 299.3147,-122 299.3147,-86 440.6853,-86 440.6853,-122"/>
<text text-anchor="middle" x="370" y="-99.8" font-family="Times,serif" font-size="14.00" fill="#000000">OfferMainComponent</text>
</g>
<!-- OfferMainComponent&#45;&gt;OfferModule -->
<g id="edge3" class="edge">
<title>OfferMainComponent&#45;&gt;OfferModule</title>
<path fill="none" stroke="#000000" d="M370,-122.1061C370,-122.1061 370,-140.991 370,-140.991"/>
<polygon fill="#000000" stroke="#000000" points="366.5001,-140.9909 370,-150.991 373.5001,-140.991 366.5001,-140.9909"/>
</g>
<!-- OfferRoutingModule -->
<g id="node5" class="node">
<title>OfferRoutingModule</title>
<polygon fill="#8dd3c7" stroke="#000000" points="275.4706,-122 272.4706,-126 251.4706,-126 248.4706,-122 140.5294,-122 140.5294,-86 275.4706,-86 275.4706,-122"/>
<text text-anchor="middle" x="208" y="-99.8" font-family="Times,serif" font-size="14.00" fill="#000000">OfferRoutingModule</text>
</g>
<!-- OfferRoutingModule&#45;&gt;OfferModule -->
<g id="edge4" class="edge">
<title>OfferRoutingModule&#45;&gt;OfferModule</title>
<path fill="none" stroke="#000000" d="M208,-122.0225C208,-139.3734 208,-163 208,-163 208,-163 314.874,-163 314.874,-163"/>
<polygon fill="#000000" stroke="#000000" points="314.874,-166.5001 324.874,-163 314.8739,-159.5001 314.874,-166.5001"/>
</g>
<!-- SharedModule -->
<g id="node6" class="node">
<title>SharedModule</title>
<polygon fill="#8dd3c7" stroke="#000000" points="122.4231,-122 119.4231,-126 98.4231,-126 95.4231,-122 23.5769,-122 23.5769,-86 122.4231,-86 122.4231,-122"/>
<text text-anchor="middle" x="73" y="-99.8" font-family="Times,serif" font-size="14.00" fill="#000000">SharedModule</text>
</g>
<!-- SharedModule&#45;&gt;OfferModule -->
<g id="edge5" class="edge">
<title>SharedModule&#45;&gt;OfferModule</title>
<path fill="none" stroke="#000000" d="M73,-122.2843C73,-143.3211 73,-175 73,-175 73,-175 314.8921,-175 314.8921,-175"/>
<polygon fill="#000000" stroke="#000000" points="314.8921,-178.5001 324.8921,-175 314.8921,-171.5001 314.8921,-178.5001"/>
</g>
</g>
</svg>
