<?xml version="1.0" encoding="UTF-8" standalone="no"?>
<!DOCTYPE svg PUBLIC "-//W3C//DTD SVG 1.1//EN"
 "http://www.w3.org/Graphics/SVG/1.1/DTD/svg11.dtd">
<!-- Generated by graphviz version 2.40.1 (20161225.0304)
 -->
<!-- Title: dependencies Pages: 1 -->
<svg width="504pt" height="284pt"
 viewBox="0.00 0.00 504.00 284.00" xmlns="http://www.w3.org/2000/svg" xmlns:xlink="http://www.w3.org/1999/xlink">
<g id="graph0" class="graph" transform="scale(1 1) rotate(0) translate(4 280)">
<title>dependencies</title>
<polygon fill="#ffffff" stroke="transparent" points="-4,4 -4,-280 500,-280 500,4 -4,4"/>
<text text-anchor="start" x="227.0091" y="-42.4" font-family="sans-serif" font-weight="bold" font-size="14.00" fill="#000000">Legend</text>
<polygon fill="#ffffb3" stroke="transparent" points="14,-10 14,-30 34,-30 34,-10 14,-10"/>
<text text-anchor="start" x="37.629" y="-15.4" font-family="sans-serif" font-size="14.00" fill="#000000"> &#160;Declarations</text>
<polygon fill="#8dd3c7" stroke="transparent" points="127,-10 127,-30 147,-30 147,-10 127,-10"/>
<text text-anchor="start" x="150.7251" y="-15.4" font-family="sans-serif" font-size="14.00" fill="#000000"> &#160;Module</text>
<polygon fill="#80b1d3" stroke="transparent" points="213,-10 213,-30 233,-30 233,-10 213,-10"/>
<text text-anchor="start" x="236.7812" y="-15.4" font-family="sans-serif" font-size="14.00" fill="#000000"> &#160;Bootstrap</text>
<polygon fill="#fdb462" stroke="transparent" points="310,-10 310,-30 330,-30 330,-10 310,-10"/>
<text text-anchor="start" x="333.6732" y="-15.4" font-family="sans-serif" font-size="14.00" fill="#000000"> &#160;Providers</text>
<polygon fill="#fb8072" stroke="transparent" points="406,-10 406,-30 426,-30 426,-10 406,-10"/>
<text text-anchor="start" x="429.7258" y="-15.4" font-family="sans-serif" font-size="14.00" fill="#000000"> &#160;Exports</text>
<g id="clust1" class="cluster">
<title>cluster_OfferModule</title>
<polygon fill="none" stroke="#000000" stroke-dasharray="1,5" points="48.5,-70 48.5,-268 447.5,-268 447.5,-70 48.5,-70"/>
</g>
<g id="clust2" class="cluster">
<title>cluster_OfferModule_declarations</title>
<polygon fill="none" stroke="#000000" points="60.5,-78 60.5,-130 436.5,-130 436.5,-78 60.5,-78"/>
</g>
<g id="clust6" class="cluster">
<title>cluster_OfferModule_exports</title>
<polygon fill="none" stroke="#000000" points="56.5,-208 56.5,-260 439.5,-260 439.5,-208 56.5,-208"/>
</g>
<!-- CreateBuyOfferComponent -->
<g id="node1" class="node">
<title>CreateBuyOfferComponent</title>
<polygon fill="#ffffb3" stroke="#000000" points="428.0043,-122 256.9957,-122 256.9957,-86 428.0043,-86 428.0043,-122"/>
<text text-anchor="middle" x="342.5" y="-99.8" font-family="Times,serif" font-size="14.00" fill="#000000">CreateBuyOfferComponent</text>
</g>
<!-- OfferModule -->
<g id="node3" class="node">
<title>OfferModule</title>
<polygon fill="#8dd3c7" stroke="#000000" points="199.3529,-187 196.3529,-191 175.3529,-191 172.3529,-187 109.6471,-187 109.6471,-151 199.3529,-151 199.3529,-187"/>
<text text-anchor="middle" x="154.5" y="-164.8" font-family="Times,serif" font-size="14.00" fill="#000000">OfferModule</text>
</g>
<!-- CreateBuyOfferComponent&#45;&gt;OfferModule -->
<g id="edge1" class="edge">
<title>CreateBuyOfferComponent&#45;&gt;OfferModule</title>
<path fill="none" stroke="#000000" d="M371.0839,-122.0225C371.0839,-139.3734 371.0839,-163 371.0839,-163 371.0839,-163 209.3763,-163 209.3763,-163"/>
<polygon fill="#000000" stroke="#000000" points="209.3764,-159.5001 199.3763,-163 209.3763,-166.5001 209.3764,-159.5001"/>
</g>
<!-- CreateSellOfferComponent -->
<g id="node2" class="node">
<title>CreateSellOfferComponent</title>
<polygon fill="#ffffb3" stroke="#000000" points="238.4454,-122 68.5546,-122 68.5546,-86 238.4454,-86 238.4454,-122"/>
<text text-anchor="middle" x="153.5" y="-99.8" font-family="Times,serif" font-size="14.00" fill="#000000">CreateSellOfferComponent</text>
</g>
<!-- CreateSellOfferComponent&#45;&gt;OfferModule -->
<g id="edge2" class="edge">
<title>CreateSellOfferComponent&#45;&gt;OfferModule</title>
<path fill="none" stroke="#000000" d="M154.5,-122.1061C154.5,-122.1061 154.5,-140.991 154.5,-140.991"/>
<polygon fill="#000000" stroke="#000000" points="151.0001,-140.9909 154.5,-150.991 158.0001,-140.991 151.0001,-140.9909"/>
</g>
<!-- CreateBuyOfferComponent  -->
<g id="node4" class="node">
<title>CreateBuyOfferComponent </title>
<polygon fill="#fb8072" stroke="#000000" points="431.0036,-252 255.9964,-252 255.9964,-216 431.0036,-216 431.0036,-252"/>
<text text-anchor="middle" x="343.5" y="-229.8" font-family="Times,serif" font-size="14.00" fill="#000000">CreateBuyOfferComponent </text>
</g>
<!-- OfferModule&#45;&gt;CreateBuyOfferComponent  -->
<g id="edge3" class="edge">
<title>OfferModule&#45;&gt;CreateBuyOfferComponent </title>
<path fill="none" stroke="#000000" stroke-dasharray="5,2" d="M199.7558,-175C246.8862,-175 313.9161,-175 313.9161,-175 313.9161,-175 313.9161,-205.9775 313.9161,-205.9775"/>
<polygon fill="#000000" stroke="#000000" points="310.4162,-205.9774 313.9161,-215.9775 317.4162,-205.9775 310.4162,-205.9774"/>
</g>
<!-- CreateSellOfferComponent  -->
<g id="node5" class="node">
<title>CreateSellOfferComponent </title>
<polygon fill="#fb8072" stroke="#000000" points="238.446,-252 64.554,-252 64.554,-216 238.446,-216 238.446,-252"/>
<text text-anchor="middle" x="151.5" y="-229.8" font-family="Times,serif" font-size="14.00" fill="#000000">CreateSellOfferComponent </text>
</g>
<!-- OfferModule&#45;&gt;CreateSellOfferComponent  -->
<g id="edge4" class="edge">
<title>OfferModule&#45;&gt;CreateSellOfferComponent </title>
<path fill="none" stroke="#000000" stroke-dasharray="5,2" d="M154.5,-187.1061C154.5,-187.1061 154.5,-205.991 154.5,-205.991"/>
<polygon fill="#000000" stroke="#000000" points="151.0001,-205.9909 154.5,-215.991 158.0001,-205.991 151.0001,-205.9909"/>
</g>
</g>
</svg>
