<?xml version="1.0" encoding="UTF-8" standalone="no"?>
<!DOCTYPE svg PUBLIC "-//W3C//DTD SVG 1.1//EN"
 "http://www.w3.org/Graphics/SVG/1.1/DTD/svg11.dtd">
<!-- Generated by graphviz version 2.40.1 (20161225.0304)
 -->
<!-- Title: dependencies Pages: 1 -->
<svg width="1167pt" height="284pt"
 viewBox="0.00 0.00 1167.00 284.00" xmlns="http://www.w3.org/2000/svg" xmlns:xlink="http://www.w3.org/1999/xlink">
<g id="graph0" class="graph" transform="scale(1 1) rotate(0) translate(4 280)">
<title>dependencies</title>
<polygon fill="#ffffff" stroke="transparent" points="-4,4 -4,-280 1163,-280 1163,4 -4,4"/>
<text text-anchor="start" x="558.5091" y="-42.4" font-family="sans-serif" font-weight="bold" font-size="14.00" fill="#000000">Legend</text>
<polygon fill="#ffffb3" stroke="transparent" points="345.5,-10 345.5,-30 365.5,-30 365.5,-10 345.5,-10"/>
<text text-anchor="start" x="369.129" y="-15.4" font-family="sans-serif" font-size="14.00" fill="#000000"> &#160;Declarations</text>
<polygon fill="#8dd3c7" stroke="transparent" points="458.5,-10 458.5,-30 478.5,-30 478.5,-10 458.5,-10"/>
<text text-anchor="start" x="482.2251" y="-15.4" font-family="sans-serif" font-size="14.00" fill="#000000"> &#160;Module</text>
<polygon fill="#80b1d3" stroke="transparent" points="544.5,-10 544.5,-30 564.5,-30 564.5,-10 544.5,-10"/>
<text text-anchor="start" x="568.2812" y="-15.4" font-family="sans-serif" font-size="14.00" fill="#000000"> &#160;Bootstrap</text>
<polygon fill="#fdb462" stroke="transparent" points="641.5,-10 641.5,-30 661.5,-30 661.5,-10 641.5,-10"/>
<text text-anchor="start" x="665.1732" y="-15.4" font-family="sans-serif" font-size="14.00" fill="#000000"> &#160;Providers</text>
<polygon fill="#fb8072" stroke="transparent" points="737.5,-10 737.5,-30 757.5,-30 757.5,-10 737.5,-10"/>
<text text-anchor="start" x="761.2258" y="-15.4" font-family="sans-serif" font-size="14.00" fill="#000000"> &#160;Exports</text>
<g id="clust1" class="cluster">
<title>cluster_UserModule</title>
<polygon fill="none" stroke="#000000" stroke-dasharray="1,5" points="8,-70 8,-268 1151,-268 1151,-70 8,-70"/>
</g>
<g id="clust2" class="cluster">
<title>cluster_UserModule_declarations</title>
<polygon fill="none" stroke="#000000" points="168,-78 168,-130 1143,-130 1143,-78 168,-78"/>
</g>
<g id="clust9" class="cluster">
<title>cluster_UserModule_imports</title>
<polygon fill="none" stroke="#000000" points="16,-78 16,-130 160,-130 160,-78 16,-78"/>
</g>
<g id="clust11" class="cluster">
<title>cluster_UserModule_bootstrap</title>
<polygon fill="none" stroke="#000000" points="533,-208 533,-260 663,-260 663,-208 533,-208"/>
</g>
<!-- MainComponent -->
<g id="node1" class="node">
<title>MainComponent</title>
<polygon fill="#ffffb3" stroke="#000000" points="1135.3823,-122 1024.6177,-122 1024.6177,-86 1135.3823,-86 1135.3823,-122"/>
<text text-anchor="middle" x="1080" y="-99.8" font-family="Times,serif" font-size="14.00" fill="#000000">MainComponent</text>
</g>
<!-- UserModule -->
<g id="node7" class="node">
<title>UserModule</title>
<polygon fill="#8dd3c7" stroke="#000000" points="640.9762,-187 637.9762,-191 616.9762,-191 613.9762,-187 555.0238,-187 555.0238,-151 640.9762,-151 640.9762,-187"/>
<text text-anchor="middle" x="598" y="-164.8" font-family="Times,serif" font-size="14.00" fill="#000000">UserModule</text>
</g>
<!-- MainComponent&#45;&gt;UserModule -->
<g id="edge1" class="edge">
<title>MainComponent&#45;&gt;UserModule</title>
<path fill="none" stroke="#000000" d="M1080,-122.2921C1080,-144.2057 1080,-178 1080,-178 1080,-178 651.1985,-178 651.1985,-178"/>
<polygon fill="#000000" stroke="#000000" points="651.1985,-174.5001 641.1985,-178 651.1984,-181.5001 651.1985,-174.5001"/>
</g>
<!-- UserBuyOffersComponent -->
<g id="node2" class="node">
<title>UserBuyOffersComponent</title>
<polygon fill="#ffffb3" stroke="#000000" points="1006.3431,-122 839.6569,-122 839.6569,-86 1006.3431,-86 1006.3431,-122"/>
<text text-anchor="middle" x="923" y="-99.8" font-family="Times,serif" font-size="14.00" fill="#000000">UserBuyOffersComponent</text>
</g>
<!-- UserBuyOffersComponent&#45;&gt;UserModule -->
<g id="edge2" class="edge">
<title>UserBuyOffersComponent&#45;&gt;UserModule</title>
<path fill="none" stroke="#000000" d="M923,-122.1061C923,-141.3391 923,-169 923,-169 923,-169 651.1575,-169 651.1575,-169"/>
<polygon fill="#000000" stroke="#000000" points="651.1575,-165.5001 641.1575,-169 651.1575,-172.5001 651.1575,-165.5001"/>
</g>
<!-- UserEditComponent -->
<g id="node3" class="node">
<title>UserEditComponent</title>
<polygon fill="#ffffb3" stroke="#000000" points="821.5926,-122 690.4074,-122 690.4074,-86 821.5926,-86 821.5926,-122"/>
<text text-anchor="middle" x="756" y="-99.8" font-family="Times,serif" font-size="14.00" fill="#000000">UserEditComponent</text>
</g>
<!-- UserEditComponent&#45;&gt;UserModule -->
<g id="edge3" class="edge">
<title>UserEditComponent&#45;&gt;UserModule</title>
<path fill="none" stroke="#000000" d="M756,-122.027C756,-138.3976 756,-160 756,-160 756,-160 651.1742,-160 651.1742,-160"/>
<polygon fill="#000000" stroke="#000000" points="651.1742,-156.5001 641.1742,-160 651.1742,-163.5001 651.1742,-156.5001"/>
</g>
<!-- UserHistoryComponent -->
<g id="node4" class="node">
<title>UserHistoryComponent</title>
<polygon fill="#ffffb3" stroke="#000000" points="672.752,-122 523.248,-122 523.248,-86 672.752,-86 672.752,-122"/>
<text text-anchor="middle" x="598" y="-99.8" font-family="Times,serif" font-size="14.00" fill="#000000">UserHistoryComponent</text>
</g>
<!-- UserHistoryComponent&#45;&gt;UserModule -->
<g id="edge4" class="edge">
<title>UserHistoryComponent&#45;&gt;UserModule</title>
<path fill="none" stroke="#000000" d="M598,-122.1061C598,-122.1061 598,-140.991 598,-140.991"/>
<polygon fill="#000000" stroke="#000000" points="594.5001,-140.9909 598,-150.991 601.5001,-140.991 594.5001,-140.9909"/>
</g>
<!-- UserSellOffersComponent -->
<g id="node5" class="node">
<title>UserSellOffersComponent</title>
<polygon fill="#ffffb3" stroke="#000000" points="504.785,-122 339.215,-122 339.215,-86 504.785,-86 504.785,-122"/>
<text text-anchor="middle" x="422" y="-99.8" font-family="Times,serif" font-size="14.00" fill="#000000">UserSellOffersComponent</text>
</g>
<!-- UserSellOffersComponent&#45;&gt;UserModule -->
<g id="edge5" class="edge">
<title>UserSellOffersComponent&#45;&gt;UserModule</title>
<path fill="none" stroke="#000000" d="M422,-122.027C422,-138.3976 422,-160 422,-160 422,-160 544.9456,-160 544.9456,-160"/>
<polygon fill="#000000" stroke="#000000" points="544.9456,-163.5001 554.9456,-160 544.9455,-156.5001 544.9456,-163.5001"/>
</g>
<!-- UserSharesComponent -->
<g id="node6" class="node">
<title>UserSharesComponent</title>
<polygon fill="#ffffb3" stroke="#000000" points="321.5758,-122 176.4242,-122 176.4242,-86 321.5758,-86 321.5758,-122"/>
<text text-anchor="middle" x="249" y="-99.8" font-family="Times,serif" font-size="14.00" fill="#000000">UserSharesComponent</text>
</g>
<!-- UserSharesComponent&#45;&gt;UserModule -->
<g id="edge6" class="edge">
<title>UserSharesComponent&#45;&gt;UserModule</title>
<path fill="none" stroke="#000000" d="M249,-122.1061C249,-141.3391 249,-169 249,-169 249,-169 544.8557,-169 544.8557,-169"/>
<polygon fill="#000000" stroke="#000000" points="544.8557,-172.5001 554.8557,-169 544.8557,-165.5001 544.8557,-172.5001"/>
</g>
<!-- MainComponent  -->
<g id="node9" class="node">
<title>MainComponent </title>
<polygon fill="#80b1d3" stroke="#000000" points="655.3828,-252 540.6172,-252 540.6172,-216 655.3828,-216 655.3828,-252"/>
<text text-anchor="middle" x="598" y="-229.8" font-family="Times,serif" font-size="14.00" fill="#000000">MainComponent </text>
</g>
<!-- UserModule&#45;&gt;MainComponent  -->
<g id="edge8" class="edge">
<title>UserModule&#45;&gt;MainComponent </title>
<path fill="none" stroke="#000000" stroke-dasharray="1,5" d="M598,-187.1061C598,-187.1061 598,-205.991 598,-205.991"/>
<polygon fill="#000000" stroke="#000000" points="594.5001,-205.9909 598,-215.991 601.5001,-205.991 594.5001,-205.9909"/>
</g>
<!-- userRoutingModule -->
<g id="node8" class="node">
<title>userRoutingModule</title>
<polygon fill="#8dd3c7" stroke="#000000" points="151.9874,-122 148.9874,-126 127.9874,-126 124.9874,-122 24.0126,-122 24.0126,-86 151.9874,-86 151.9874,-122"/>
<text text-anchor="middle" x="88" y="-99.8" font-family="Times,serif" font-size="14.00" fill="#000000">userRoutingModule</text>
</g>
<!-- userRoutingModule&#45;&gt;UserModule -->
<g id="edge7" class="edge">
<title>userRoutingModule&#45;&gt;UserModule</title>
<path fill="none" stroke="#000000" d="M88,-122.2921C88,-144.2057 88,-178 88,-178 88,-178 544.9572,-178 544.9572,-178"/>
<polygon fill="#000000" stroke="#000000" points="544.9573,-181.5001 554.9572,-178 544.9572,-174.5001 544.9573,-181.5001"/>
</g>
</g>
</svg>
