<?xml version="1.0" encoding="UTF-8" standalone="no"?>
<!DOCTYPE svg PUBLIC "-//W3C//DTD SVG 1.1//EN"
 "http://www.w3.org/Graphics/SVG/1.1/DTD/svg11.dtd">
<!-- Generated by graphviz version 2.40.1 (20161225.0304)
 -->
<!-- Title: dependencies Pages: 1 -->
<svg width="1468pt" height="284pt"
 viewBox="0.00 0.00 1468.00 284.00" xmlns="http://www.w3.org/2000/svg" xmlns:xlink="http://www.w3.org/1999/xlink">
<g id="graph0" class="graph" transform="scale(1 1) rotate(0) translate(4 280)">
<title>dependencies</title>
<polygon fill="#ffffff" stroke="transparent" points="-4,4 -4,-280 1464,-280 1464,4 -4,4"/>
<text text-anchor="start" x="709.0091" y="-42.4" font-family="sans-serif" font-weight="bold" font-size="14.00" fill="#000000">Legend</text>
<polygon fill="#ffffb3" stroke="transparent" points="496,-10 496,-30 516,-30 516,-10 496,-10"/>
<text text-anchor="start" x="519.629" y="-15.4" font-family="sans-serif" font-size="14.00" fill="#000000"> &#160;Declarations</text>
<polygon fill="#8dd3c7" stroke="transparent" points="609,-10 609,-30 629,-30 629,-10 609,-10"/>
<text text-anchor="start" x="632.7251" y="-15.4" font-family="sans-serif" font-size="14.00" fill="#000000"> &#160;Module</text>
<polygon fill="#80b1d3" stroke="transparent" points="695,-10 695,-30 715,-30 715,-10 695,-10"/>
<text text-anchor="start" x="718.7812" y="-15.4" font-family="sans-serif" font-size="14.00" fill="#000000"> &#160;Bootstrap</text>
<polygon fill="#fdb462" stroke="transparent" points="792,-10 792,-30 812,-30 812,-10 792,-10"/>
<text text-anchor="start" x="815.6732" y="-15.4" font-family="sans-serif" font-size="14.00" fill="#000000"> &#160;Providers</text>
<polygon fill="#fb8072" stroke="transparent" points="888,-10 888,-30 908,-30 908,-10 888,-10"/>
<text text-anchor="start" x="911.7258" y="-15.4" font-family="sans-serif" font-size="14.00" fill="#000000"> &#160;Exports</text>
<g id="clust1" class="cluster">
<title>cluster_UserModule</title>
<polygon fill="none" stroke="#000000" stroke-dasharray="1,5" points="8,-70 8,-268 1452,-268 1452,-70 8,-70"/>
</g>
<g id="clust2" class="cluster">
<title>cluster_UserModule_declarations</title>
<polygon fill="none" stroke="#000000" points="284,-78 284,-130 1444,-130 1444,-78 284,-78"/>
</g>
<g id="clust10" class="cluster">
<title>cluster_UserModule_imports</title>
<polygon fill="none" stroke="#000000" points="16,-78 16,-130 276,-130 276,-78 16,-78"/>
</g>
<g id="clust12" class="cluster">
<title>cluster_UserModule_bootstrap</title>
<polygon fill="none" stroke="#000000" points="649,-208 649,-260 779,-260 779,-208 649,-208"/>
</g>
<!-- ConfirmDialogComponent -->
<g id="node1" class="node">
<title>ConfirmDialogComponent</title>
<polygon fill="#ffffb3" stroke="#000000" points="1436.3738,-122 1269.6262,-122 1269.6262,-86 1436.3738,-86 1436.3738,-122"/>
<text text-anchor="middle" x="1353" y="-99.8" font-family="Times,serif" font-size="14.00" fill="#000000">ConfirmDialogComponent</text>
</g>
<!-- UserModule -->
<g id="node8" class="node">
<title>UserModule</title>
<polygon fill="#8dd3c7" stroke="#000000" points="756.9762,-187 753.9762,-191 732.9762,-191 729.9762,-187 671.0238,-187 671.0238,-151 756.9762,-151 756.9762,-187"/>
<text text-anchor="middle" x="714" y="-164.8" font-family="Times,serif" font-size="14.00" fill="#000000">UserModule</text>
</g>
<!-- ConfirmDialogComponent&#45;&gt;UserModule -->
<g id="edge1" class="edge">
<title>ConfirmDialogComponent&#45;&gt;UserModule</title>
<path fill="none" stroke="#000000" d="M1353,-122.0109C1353,-144.4852 1353,-180 1353,-180 1353,-180 767.4187,-180 767.4187,-180"/>
<polygon fill="#000000" stroke="#000000" points="767.4187,-176.5001 757.4187,-180 767.4187,-183.5001 767.4187,-176.5001"/>
</g>
<!-- MainComponent -->
<g id="node2" class="node">
<title>MainComponent</title>
<polygon fill="#ffffb3" stroke="#000000" points="1251.3823,-122 1140.6177,-122 1140.6177,-86 1251.3823,-86 1251.3823,-122"/>
<text text-anchor="middle" x="1196" y="-99.8" font-family="Times,serif" font-size="14.00" fill="#000000">MainComponent</text>
</g>
<!-- MainComponent&#45;&gt;UserModule -->
<g id="edge2" class="edge">
<title>MainComponent&#45;&gt;UserModule</title>
<path fill="none" stroke="#000000" d="M1196,-122.1289C1196,-142.5724 1196,-173 1196,-173 1196,-173 767.1985,-173 767.1985,-173"/>
<polygon fill="#000000" stroke="#000000" points="767.1985,-169.5001 757.1985,-173 767.1984,-176.5001 767.1985,-169.5001"/>
</g>
<!-- UserBuyOffersComponent -->
<g id="node3" class="node">
<title>UserBuyOffersComponent</title>
<polygon fill="#ffffb3" stroke="#000000" points="1122.3431,-122 955.6569,-122 955.6569,-86 1122.3431,-86 1122.3431,-122"/>
<text text-anchor="middle" x="1039" y="-99.8" font-family="Times,serif" font-size="14.00" fill="#000000">UserBuyOffersComponent</text>
</g>
<!-- UserBuyOffersComponent&#45;&gt;UserModule -->
<g id="edge3" class="edge">
<title>UserBuyOffersComponent&#45;&gt;UserModule</title>
<path fill="none" stroke="#000000" d="M1039,-122.2667C1039,-140.5552 1039,-166 1039,-166 1039,-166 767.1575,-166 767.1575,-166"/>
<polygon fill="#000000" stroke="#000000" points="767.1575,-162.5001 757.1575,-166 767.1575,-169.5001 767.1575,-162.5001"/>
</g>
<!-- UserEditComponent -->
<g id="node4" class="node">
<title>UserEditComponent</title>
<polygon fill="#ffffb3" stroke="#000000" points="937.5926,-122 806.4074,-122 806.4074,-86 937.5926,-86 937.5926,-122"/>
<text text-anchor="middle" x="872" y="-99.8" font-family="Times,serif" font-size="14.00" fill="#000000">UserEditComponent</text>
</g>
<!-- UserEditComponent&#45;&gt;UserModule -->
<g id="edge4" class="edge">
<title>UserEditComponent&#45;&gt;UserModule</title>
<path fill="none" stroke="#000000" d="M872,-122.0091C872,-138.0494 872,-159 872,-159 872,-159 767.1742,-159 767.1742,-159"/>
<polygon fill="#000000" stroke="#000000" points="767.1742,-155.5001 757.1742,-159 767.1742,-162.5001 767.1742,-155.5001"/>
</g>
<!-- UserHistoryComponent -->
<g id="node5" class="node">
<title>UserHistoryComponent</title>
<polygon fill="#ffffb3" stroke="#000000" points="788.752,-122 639.248,-122 639.248,-86 788.752,-86 788.752,-122"/>
<text text-anchor="middle" x="714" y="-99.8" font-family="Times,serif" font-size="14.00" fill="#000000">UserHistoryComponent</text>
</g>
<!-- UserHistoryComponent&#45;&gt;UserModule -->
<g id="edge5" class="edge">
<title>UserHistoryComponent&#45;&gt;UserModule</title>
<path fill="none" stroke="#000000" d="M714,-122.1061C714,-122.1061 714,-140.991 714,-140.991"/>
<polygon fill="#000000" stroke="#000000" points="710.5001,-140.9909 714,-150.991 717.5001,-140.991 710.5001,-140.9909"/>
</g>
<!-- UserSellOffersComponent -->
<g id="node6" class="node">
<title>UserSellOffersComponent</title>
<polygon fill="#ffffb3" stroke="#000000" points="620.785,-122 455.215,-122 455.215,-86 620.785,-86 620.785,-122"/>
<text text-anchor="middle" x="538" y="-99.8" font-family="Times,serif" font-size="14.00" fill="#000000">UserSellOffersComponent</text>
</g>
<!-- UserSellOffersComponent&#45;&gt;UserModule -->
<g id="edge6" class="edge">
<title>UserSellOffersComponent&#45;&gt;UserModule</title>
<path fill="none" stroke="#000000" d="M538,-122.0091C538,-138.0494 538,-159 538,-159 538,-159 660.9456,-159 660.9456,-159"/>
<polygon fill="#000000" stroke="#000000" points="660.9456,-162.5001 670.9456,-159 660.9455,-155.5001 660.9456,-162.5001"/>
</g>
<!-- UserSharesComponent -->
<g id="node7" class="node">
<title>UserSharesComponent</title>
<polygon fill="#ffffb3" stroke="#000000" points="437.5758,-122 292.4242,-122 292.4242,-86 437.5758,-86 437.5758,-122"/>
<text text-anchor="middle" x="365" y="-99.8" font-family="Times,serif" font-size="14.00" fill="#000000">UserSharesComponent</text>
</g>
<!-- UserSharesComponent&#45;&gt;UserModule -->
<g id="edge7" class="edge">
<title>UserSharesComponent&#45;&gt;UserModule</title>
<path fill="none" stroke="#000000" d="M365,-122.2667C365,-140.5552 365,-166 365,-166 365,-166 660.8557,-166 660.8557,-166"/>
<polygon fill="#000000" stroke="#000000" points="660.8557,-169.5001 670.8557,-166 660.8557,-162.5001 660.8557,-169.5001"/>
</g>
<!-- MainComponent  -->
<g id="node11" class="node">
<title>MainComponent </title>
<polygon fill="#80b1d3" stroke="#000000" points="771.3828,-252 656.6172,-252 656.6172,-216 771.3828,-216 771.3828,-252"/>
<text text-anchor="middle" x="714" y="-229.8" font-family="Times,serif" font-size="14.00" fill="#000000">MainComponent </text>
</g>
<!-- UserModule&#45;&gt;MainComponent  -->
<g id="edge10" class="edge">
<title>UserModule&#45;&gt;MainComponent </title>
<path fill="none" stroke="#000000" stroke-dasharray="1,5" d="M714,-187.1061C714,-187.1061 714,-205.991 714,-205.991"/>
<polygon fill="#000000" stroke="#000000" points="710.5001,-205.9909 714,-215.991 717.5001,-205.991 710.5001,-205.9909"/>
</g>
<!-- SharedModule -->
<g id="node9" class="node">
<title>SharedModule</title>
<polygon fill="#8dd3c7" stroke="#000000" points="268.4231,-122 265.4231,-126 244.4231,-126 241.4231,-122 169.5769,-122 169.5769,-86 268.4231,-86 268.4231,-122"/>
<text text-anchor="middle" x="219" y="-99.8" font-family="Times,serif" font-size="14.00" fill="#000000">SharedModule</text>
</g>
<!-- SharedModule&#45;&gt;UserModule -->
<g id="edge8" class="edge">
<title>SharedModule&#45;&gt;UserModule</title>
<path fill="none" stroke="#000000" d="M219,-122.1289C219,-142.5724 219,-173 219,-173 219,-173 660.9379,-173 660.9379,-173"/>
<polygon fill="#000000" stroke="#000000" points="660.938,-176.5001 670.9379,-173 660.9379,-169.5001 660.938,-176.5001"/>
</g>
<!-- userRoutingModule -->
<g id="node10" class="node">
<title>userRoutingModule</title>
<polygon fill="#8dd3c7" stroke="#000000" points="151.9874,-122 148.9874,-126 127.9874,-126 124.9874,-122 24.0126,-122 24.0126,-86 151.9874,-86 151.9874,-122"/>
<text text-anchor="middle" x="88" y="-99.8" font-family="Times,serif" font-size="14.00" fill="#000000">userRoutingModule</text>
</g>
<!-- userRoutingModule&#45;&gt;UserModule -->
<g id="edge9" class="edge">
<title>userRoutingModule&#45;&gt;UserModule</title>
<path fill="none" stroke="#000000" d="M88,-122.0109C88,-144.4852 88,-180 88,-180 88,-180 660.9725,-180 660.9725,-180"/>
<polygon fill="#000000" stroke="#000000" points="660.9725,-183.5001 670.9725,-180 660.9724,-176.5001 660.9725,-183.5001"/>
</g>
</g>
</svg>
