<?xml version="1.0" encoding="UTF-8" standalone="no"?>
<!DOCTYPE svg PUBLIC "-//W3C//DTD SVG 1.1//EN"
 "http://www.w3.org/Graphics/SVG/1.1/DTD/svg11.dtd">
<!-- Generated by graphviz version 2.40.1 (20161225.0304)
 -->
<!-- Title: dependencies Pages: 1 -->
<svg width="1004pt" height="284pt"
 viewBox="0.00 0.00 1004.00 284.00" xmlns="http://www.w3.org/2000/svg" xmlns:xlink="http://www.w3.org/1999/xlink">
<g id="graph0" class="graph" transform="scale(1 1) rotate(0) translate(4 280)">
<title>dependencies</title>
<polygon fill="#ffffff" stroke="transparent" points="-4,4 -4,-280 1000,-280 1000,4 -4,4"/>
<text text-anchor="start" x="477.0091" y="-42.4" font-family="sans-serif" font-weight="bold" font-size="14.00" fill="#000000">Legend</text>
<polygon fill="#ffffb3" stroke="transparent" points="264,-10 264,-30 284,-30 284,-10 264,-10"/>
<text text-anchor="start" x="287.629" y="-15.4" font-family="sans-serif" font-size="14.00" fill="#000000"> &#160;Declarations</text>
<polygon fill="#8dd3c7" stroke="transparent" points="377,-10 377,-30 397,-30 397,-10 377,-10"/>
<text text-anchor="start" x="400.7251" y="-15.4" font-family="sans-serif" font-size="14.00" fill="#000000"> &#160;Module</text>
<polygon fill="#80b1d3" stroke="transparent" points="463,-10 463,-30 483,-30 483,-10 463,-10"/>
<text text-anchor="start" x="486.7812" y="-15.4" font-family="sans-serif" font-size="14.00" fill="#000000"> &#160;Bootstrap</text>
<polygon fill="#fdb462" stroke="transparent" points="560,-10 560,-30 580,-30 580,-10 560,-10"/>
<text text-anchor="start" x="583.6732" y="-15.4" font-family="sans-serif" font-size="14.00" fill="#000000"> &#160;Providers</text>
<polygon fill="#fb8072" stroke="transparent" points="656,-10 656,-30 676,-30 676,-10 656,-10"/>
<text text-anchor="start" x="679.7258" y="-15.4" font-family="sans-serif" font-size="14.00" fill="#000000"> &#160;Exports</text>
<g id="clust1" class="cluster">
<title>cluster_UserModule</title>
<polygon fill="none" stroke="#000000" stroke-dasharray="1,5" points="8,-70 8,-268 988,-268 988,-70 8,-70"/>
</g>
<g id="clust2" class="cluster">
<title>cluster_UserModule_declarations</title>
<polygon fill="none" stroke="#000000" points="168,-78 168,-130 980,-130 980,-78 168,-78"/>
</g>
<g id="clust8" class="cluster">
<title>cluster_UserModule_imports</title>
<polygon fill="none" stroke="#000000" points="16,-78 16,-130 160,-130 160,-78 16,-78"/>
</g>
<g id="clust10" class="cluster">
<title>cluster_UserModule_bootstrap</title>
<polygon fill="none" stroke="#000000" points="449,-208 449,-260 579,-260 579,-208 449,-208"/>
</g>
<!-- MainComponent -->
<g id="node1" class="node">
<title>MainComponent</title>
<polygon fill="#ffffb3" stroke="#000000" points="972.3823,-122 861.6177,-122 861.6177,-86 972.3823,-86 972.3823,-122"/>
<text text-anchor="middle" x="917" y="-99.8" font-family="Times,serif" font-size="14.00" fill="#000000">MainComponent</text>
</g>
<!-- UserModule -->
<g id="node6" class="node">
<title>UserModule</title>
<polygon fill="#8dd3c7" stroke="#000000" points="556.9762,-187 553.9762,-191 532.9762,-191 529.9762,-187 471.0238,-187 471.0238,-151 556.9762,-151 556.9762,-187"/>
<text text-anchor="middle" x="514" y="-164.8" font-family="Times,serif" font-size="14.00" fill="#000000">UserModule</text>
</g>
<!-- MainComponent&#45;&gt;UserModule -->
<g id="edge1" class="edge">
<title>MainComponent&#45;&gt;UserModule</title>
<path fill="none" stroke="#000000" d="M917,-122.2843C917,-143.3211 917,-175 917,-175 917,-175 567.1281,-175 567.1281,-175"/>
<polygon fill="#000000" stroke="#000000" points="567.1281,-171.5001 557.1281,-175 567.128,-178.5001 567.1281,-171.5001"/>
</g>
<!-- UserBuyOffersComponent -->
<g id="node2" class="node">
<title>UserBuyOffersComponent</title>
<polygon fill="#ffffb3" stroke="#000000" points="843.3431,-122 676.6569,-122 676.6569,-86 843.3431,-86 843.3431,-122"/>
<text text-anchor="middle" x="760" y="-99.8" font-family="Times,serif" font-size="14.00" fill="#000000">UserBuyOffersComponent</text>
</g>
<!-- UserBuyOffersComponent&#45;&gt;UserModule -->
<g id="edge2" class="edge">
<title>UserBuyOffersComponent&#45;&gt;UserModule</title>
<path fill="none" stroke="#000000" d="M760,-122.0225C760,-139.3734 760,-163 760,-163 760,-163 567.1314,-163 567.1314,-163"/>
<polygon fill="#000000" stroke="#000000" points="567.1315,-159.5001 557.1314,-163 567.1314,-166.5001 567.1315,-159.5001"/>
</g>
<!-- UserEditComponent -->
<g id="node3" class="node">
<title>UserEditComponent</title>
<polygon fill="#ffffb3" stroke="#000000" points="658.5926,-122 527.4074,-122 527.4074,-86 658.5926,-86 658.5926,-122"/>
<text text-anchor="middle" x="593" y="-99.8" font-family="Times,serif" font-size="14.00" fill="#000000">UserEditComponent</text>
</g>
<!-- UserEditComponent&#45;&gt;UserModule -->
<g id="edge3" class="edge">
<title>UserEditComponent&#45;&gt;UserModule</title>
<path fill="none" stroke="#000000" d="M542.2209,-122.1061C542.2209,-122.1061 542.2209,-140.991 542.2209,-140.991"/>
<polygon fill="#000000" stroke="#000000" points="538.721,-140.9909 542.2209,-150.991 545.721,-140.991 538.721,-140.9909"/>
</g>
<!-- UserHistoryComponent -->
<g id="node4" class="node">
<title>UserHistoryComponent</title>
<polygon fill="#ffffb3" stroke="#000000" points="509.752,-122 360.248,-122 360.248,-86 509.752,-86 509.752,-122"/>
<text text-anchor="middle" x="435" y="-99.8" font-family="Times,serif" font-size="14.00" fill="#000000">UserHistoryComponent</text>
</g>
<!-- UserHistoryComponent&#45;&gt;UserModule -->
<g id="edge4" class="edge">
<title>UserHistoryComponent&#45;&gt;UserModule</title>
<path fill="none" stroke="#000000" d="M490.4439,-122.1061C490.4439,-122.1061 490.4439,-140.991 490.4439,-140.991"/>
<polygon fill="#000000" stroke="#000000" points="486.944,-140.9909 490.4439,-150.991 493.944,-140.991 486.944,-140.9909"/>
</g>
<!-- UserSellOffersComponent -->
<g id="node5" class="node">
<title>UserSellOffersComponent</title>
<polygon fill="#ffffb3" stroke="#000000" points="341.785,-122 176.215,-122 176.215,-86 341.785,-86 341.785,-122"/>
<text text-anchor="middle" x="259" y="-99.8" font-family="Times,serif" font-size="14.00" fill="#000000">UserSellOffersComponent</text>
</g>
<!-- UserSellOffersComponent&#45;&gt;UserModule -->
<g id="edge5" class="edge">
<title>UserSellOffersComponent&#45;&gt;UserModule</title>
<path fill="none" stroke="#000000" d="M259,-122.0225C259,-139.3734 259,-163 259,-163 259,-163 460.7427,-163 460.7427,-163"/>
<polygon fill="#000000" stroke="#000000" points="460.7428,-166.5001 470.7427,-163 460.7427,-159.5001 460.7428,-166.5001"/>
</g>
<!-- MainComponent  -->
<g id="node8" class="node">
<title>MainComponent </title>
<polygon fill="#80b1d3" stroke="#000000" points="571.3828,-252 456.6172,-252 456.6172,-216 571.3828,-216 571.3828,-252"/>
<text text-anchor="middle" x="514" y="-229.8" font-family="Times,serif" font-size="14.00" fill="#000000">MainComponent </text>
</g>
<!-- UserModule&#45;&gt;MainComponent  -->
<g id="edge7" class="edge">
<title>UserModule&#45;&gt;MainComponent </title>
<path fill="none" stroke="#000000" stroke-dasharray="1,5" d="M514,-187.1061C514,-187.1061 514,-205.991 514,-205.991"/>
<polygon fill="#000000" stroke="#000000" points="510.5001,-205.9909 514,-215.991 517.5001,-205.991 510.5001,-205.9909"/>
</g>
<!-- userRoutingModule -->
<g id="node7" class="node">
<title>userRoutingModule</title>
<polygon fill="#8dd3c7" stroke="#000000" points="151.9874,-122 148.9874,-126 127.9874,-126 124.9874,-122 24.0126,-122 24.0126,-86 151.9874,-86 151.9874,-122"/>
<text text-anchor="middle" x="88" y="-99.8" font-family="Times,serif" font-size="14.00" fill="#000000">userRoutingModule</text>
</g>
<!-- userRoutingModule&#45;&gt;UserModule -->
<g id="edge6" class="edge">
<title>userRoutingModule&#45;&gt;UserModule</title>
<path fill="none" stroke="#000000" d="M88,-122.2843C88,-143.3211 88,-175 88,-175 88,-175 460.8085,-175 460.8085,-175"/>
<polygon fill="#000000" stroke="#000000" points="460.8085,-178.5001 470.8085,-175 460.8085,-171.5001 460.8085,-178.5001"/>
</g>
</g>
</svg>
