<?xml version="1.0" encoding="UTF-8" standalone="no"?>
<!DOCTYPE svg PUBLIC "-//W3C//DTD SVG 1.1//EN"
 "http://www.w3.org/Graphics/SVG/1.1/DTD/svg11.dtd">
<!-- Generated by graphviz version 2.40.1 (20161225.0304)
 -->
<!-- Title: dependencies Pages: 1 -->
<svg width="3241pt" height="355pt"
 viewBox="0.00 0.00 3241.00 355.00" xmlns="http://www.w3.org/2000/svg" xmlns:xlink="http://www.w3.org/1999/xlink">
<g id="graph0" class="graph" transform="scale(1 1) rotate(0) translate(4 351)">
<title>dependencies</title>
<polygon fill="#ffffff" stroke="transparent" points="-4,4 -4,-351 3237,-351 3237,4 -4,4"/>
<text text-anchor="start" x="1595.5091" y="-42.4" font-family="sans-serif" font-weight="bold" font-size="14.00" fill="#000000">Legend</text>
<polygon fill="#ffffb3" stroke="transparent" points="1382.5,-10 1382.5,-30 1402.5,-30 1402.5,-10 1382.5,-10"/>
<text text-anchor="start" x="1406.129" y="-15.4" font-family="sans-serif" font-size="14.00" fill="#000000"> &#160;Declarations</text>
<polygon fill="#8dd3c7" stroke="transparent" points="1495.5,-10 1495.5,-30 1515.5,-30 1515.5,-10 1495.5,-10"/>
<text text-anchor="start" x="1519.2251" y="-15.4" font-family="sans-serif" font-size="14.00" fill="#000000"> &#160;Module</text>
<polygon fill="#80b1d3" stroke="transparent" points="1581.5,-10 1581.5,-30 1601.5,-30 1601.5,-10 1581.5,-10"/>
<text text-anchor="start" x="1605.2812" y="-15.4" font-family="sans-serif" font-size="14.00" fill="#000000"> &#160;Bootstrap</text>
<polygon fill="#fdb462" stroke="transparent" points="1678.5,-10 1678.5,-30 1698.5,-30 1698.5,-10 1678.5,-10"/>
<text text-anchor="start" x="1702.1732" y="-15.4" font-family="sans-serif" font-size="14.00" fill="#000000"> &#160;Providers</text>
<polygon fill="#fb8072" stroke="transparent" points="1774.5,-10 1774.5,-30 1794.5,-30 1794.5,-10 1774.5,-10"/>
<text text-anchor="start" x="1798.2258" y="-15.4" font-family="sans-serif" font-size="14.00" fill="#000000"> &#160;Exports</text>
<g id="clust1" class="cluster">
<title>cluster_OfferModule</title>
<polygon fill="none" stroke="#000000" stroke-dasharray="1,5" points="8,-70 8,-271 407,-271 407,-70 8,-70"/>
</g>
<g id="clust2" class="cluster">
<title>cluster_OfferModule_declarations</title>
<polygon fill="none" stroke="#000000" points="22,-78 22,-130 398,-130 398,-78 22,-78"/>
</g>
<g id="clust6" class="cluster">
<title>cluster_OfferModule_exports</title>
<polygon fill="none" stroke="#000000" points="16,-211 16,-263 399,-263 399,-211 16,-211"/>
</g>
<g id="clust9" class="cluster">
<title>cluster_RootModule</title>
<polygon fill="none" stroke="#000000" stroke-dasharray="1,5" points="415,-138 415,-339 2237,-339 2237,-138 415,-138"/>
</g>
<g id="clust10" class="cluster">
<title>cluster_RootModule_declarations</title>
<polygon fill="none" stroke="#000000" points="995,-146 995,-198 2229,-198 2229,-146 995,-146"/>
</g>
<g id="clust19" class="cluster">
<title>cluster_RootModule_imports</title>
<polygon fill="none" stroke="#000000" points="839,-146 839,-198 987,-198 987,-146 839,-146"/>
</g>
<g id="clust20" class="cluster">
<title>cluster_RootModule_exports</title>
<polygon fill="none" stroke="#000000" points="1199,-279 1199,-331 1323,-331 1323,-279 1199,-279"/>
</g>
<g id="clust22" class="cluster">
<title>cluster_RootModule_providers</title>
<polygon fill="none" stroke="#000000" points="423,-146 423,-198 831,-198 831,-146 423,-146"/>
</g>
<g id="clust29" class="cluster">
<title>cluster_UserModule</title>
<polygon fill="none" stroke="#000000" stroke-dasharray="1,5" points="2245,-70 2245,-271 3225,-271 3225,-70 2245,-70"/>
</g>
<g id="clust30" class="cluster">
<title>cluster_UserModule_declarations</title>
<polygon fill="none" stroke="#000000" points="2405,-78 2405,-130 3217,-130 3217,-78 2405,-78"/>
</g>
<g id="clust36" class="cluster">
<title>cluster_UserModule_imports</title>
<polygon fill="none" stroke="#000000" points="2253,-78 2253,-130 2397,-130 2397,-78 2253,-78"/>
</g>
<g id="clust38" class="cluster">
<title>cluster_UserModule_bootstrap</title>
<polygon fill="none" stroke="#000000" points="2686,-211 2686,-263 2816,-263 2816,-211 2686,-211"/>
</g>
<!-- CreateBuyOfferComponent -->
<g id="node1" class="node">
<title>CreateBuyOfferComponent</title>
<polygon fill="#ffffb3" stroke="#000000" points="389.5043,-122 218.4957,-122 218.4957,-86 389.5043,-86 389.5043,-122"/>
<text text-anchor="middle" x="304" y="-99.8" font-family="Times,serif" font-size="14.00" fill="#000000">CreateBuyOfferComponent</text>
</g>
<!-- OfferModule -->
<g id="node3" class="node">
<title>OfferModule</title>
<polygon fill="#8dd3c7" stroke="#000000" points="347.8529,-190 344.8529,-194 323.8529,-194 320.8529,-190 258.1471,-190 258.1471,-154 347.8529,-154 347.8529,-190"/>
<text text-anchor="middle" x="303" y="-167.8" font-family="Times,serif" font-size="14.00" fill="#000000">OfferModule</text>
</g>
<!-- CreateBuyOfferComponent&#45;&gt;OfferModule -->
<g id="edge1" class="edge">
<title>CreateBuyOfferComponent&#45;&gt;OfferModule</title>
<path fill="none" stroke="#000000" d="M303,-122.2228C303,-122.2228 303,-143.7269 303,-143.7269"/>
<polygon fill="#000000" stroke="#000000" points="299.5001,-143.7269 303,-153.7269 306.5001,-143.727 299.5001,-143.7269"/>
</g>
<!-- CreateSellOfferComponent -->
<g id="node2" class="node">
<title>CreateSellOfferComponent</title>
<polygon fill="#ffffb3" stroke="#000000" points="199.9454,-122 30.0546,-122 30.0546,-86 199.9454,-86 199.9454,-122"/>
<text text-anchor="middle" x="115" y="-99.8" font-family="Times,serif" font-size="14.00" fill="#000000">CreateSellOfferComponent</text>
</g>
<!-- CreateSellOfferComponent&#45;&gt;OfferModule -->
<g id="edge2" class="edge">
<title>CreateSellOfferComponent&#45;&gt;OfferModule</title>
<path fill="none" stroke="#000000" d="M141.8242,-122.2667C141.8242,-140.5552 141.8242,-166 141.8242,-166 141.8242,-166 248.1036,-166 248.1036,-166"/>
<polygon fill="#000000" stroke="#000000" points="248.1036,-169.5001 258.1036,-166 248.1035,-162.5001 248.1036,-169.5001"/>
</g>
<!-- CreateBuyOfferComponent  -->
<g id="node4" class="node">
<title>CreateBuyOfferComponent </title>
<polygon fill="#fb8072" stroke="#000000" points="390.5036,-255 215.4964,-255 215.4964,-219 390.5036,-219 390.5036,-255"/>
<text text-anchor="middle" x="303" y="-232.8" font-family="Times,serif" font-size="14.00" fill="#000000">CreateBuyOfferComponent </text>
</g>
<!-- OfferModule&#45;&gt;CreateBuyOfferComponent  -->
<g id="edge3" class="edge">
<title>OfferModule&#45;&gt;CreateBuyOfferComponent </title>
<path fill="none" stroke="#000000" stroke-dasharray="5,2" d="M303,-190.1061C303,-190.1061 303,-208.991 303,-208.991"/>
<polygon fill="#000000" stroke="#000000" points="299.5001,-208.9909 303,-218.991 306.5001,-208.991 299.5001,-208.9909"/>
</g>
<!-- CreateSellOfferComponent  -->
<g id="node5" class="node">
<title>CreateSellOfferComponent </title>
<polygon fill="#fb8072" stroke="#000000" points="197.946,-255 24.054,-255 24.054,-219 197.946,-219 197.946,-255"/>
<text text-anchor="middle" x="111" y="-232.8" font-family="Times,serif" font-size="14.00" fill="#000000">CreateSellOfferComponent </text>
</g>
<!-- OfferModule&#45;&gt;CreateSellOfferComponent  -->
<g id="edge4" class="edge">
<title>OfferModule&#45;&gt;CreateSellOfferComponent </title>
<path fill="none" stroke="#000000" stroke-dasharray="5,2" d="M258.0221,-178C194.4397,-178 85.9258,-178 85.9258,-178 85.9258,-178 85.9258,-208.9775 85.9258,-208.9775"/>
<polygon fill="#000000" stroke="#000000" points="82.4259,-208.9774 85.9258,-218.9775 89.4259,-208.9775 82.4259,-208.9774"/>
</g>
<!-- RootModule -->
<g id="node14" class="node">
<title>RootModule</title>
<polygon fill="#8dd3c7" stroke="#000000" points="1304.2773,-255 1301.2773,-259 1280.2773,-259 1277.2773,-255 1217.7227,-255 1217.7227,-219 1304.2773,-219 1304.2773,-255"/>
<text text-anchor="middle" x="1261" y="-232.8" font-family="Times,serif" font-size="14.00" fill="#000000">RootModule</text>
</g>
<!-- OfferModule&#45;&gt;RootModule -->
<g id="edge13" class="edge">
<title>OfferModule&#45;&gt;RootModule</title>
<path fill="none" stroke="#000000" d="M348.0288,-172C377.5273,-172 410.6483,-172 410.6483,-172 410.6483,-172 410.6483,-250 410.6483,-250 410.6483,-250 1207.6619,-250 1207.6619,-250"/>
<polygon fill="#000000" stroke="#000000" points="1207.6619,-253.5001 1217.6619,-250 1207.6618,-246.5001 1207.6619,-253.5001"/>
</g>
<!-- AppComponent -->
<g id="node6" class="node">
<title>AppComponent</title>
<polygon fill="#ffffb3" stroke="#000000" points="2220.9399,-190 2115.0601,-190 2115.0601,-154 2220.9399,-154 2220.9399,-190"/>
<text text-anchor="middle" x="2168" y="-167.8" font-family="Times,serif" font-size="14.00" fill="#000000">AppComponent</text>
</g>
<!-- AppComponent&#45;&gt;RootModule -->
<g id="edge5" class="edge">
<title>AppComponent&#45;&gt;RootModule</title>
<path fill="none" stroke="#000000" d="M2168,-190.0908C2168,-213.1328 2168,-250 2168,-250 2168,-250 1314.4409,-250 1314.4409,-250"/>
<polygon fill="#000000" stroke="#000000" points="1314.441,-246.5001 1304.4409,-250 1314.4409,-253.5001 1314.441,-246.5001"/>
</g>
<!-- HomeComponent -->
<g id="node7" class="node">
<title>HomeComponent</title>
<polygon fill="#ffffb3" stroke="#000000" points="2097.5451,-190 1982.4549,-190 1982.4549,-154 2097.5451,-154 2097.5451,-190"/>
<text text-anchor="middle" x="2040" y="-167.8" font-family="Times,serif" font-size="14.00" fill="#000000">HomeComponent</text>
</g>
<!-- HomeComponent&#45;&gt;RootModule -->
<g id="edge6" class="edge">
<title>HomeComponent&#45;&gt;RootModule</title>
<path fill="none" stroke="#000000" d="M2040,-190.0449C2040,-211.6623 2040,-245 2040,-245 2040,-245 1314.5516,-245 1314.5516,-245"/>
<polygon fill="#000000" stroke="#000000" points="1314.5517,-241.5001 1304.5516,-245 1314.5516,-248.5001 1314.5517,-241.5001"/>
</g>
<!-- LoginFormComponent -->
<g id="node8" class="node">
<title>LoginFormComponent</title>
<polygon fill="#ffffb3" stroke="#000000" points="1964.6094,-190 1819.3906,-190 1819.3906,-154 1964.6094,-154 1964.6094,-190"/>
<text text-anchor="middle" x="1892" y="-167.8" font-family="Times,serif" font-size="14.00" fill="#000000">LoginFormComponent</text>
</g>
<!-- LoginFormComponent&#45;&gt;RootModule -->
<g id="edge7" class="edge">
<title>LoginFormComponent&#45;&gt;RootModule</title>
<path fill="none" stroke="#000000" d="M1892,-190.2228C1892,-210.3652 1892,-240 1892,-240 1892,-240 1314.3712,-240 1314.3712,-240"/>
<polygon fill="#000000" stroke="#000000" points="1314.3712,-236.5001 1304.3712,-240 1314.3712,-243.5001 1314.3712,-236.5001"/>
</g>
<!-- NavHeaderComponent -->
<g id="node9" class="node">
<title>NavHeaderComponent</title>
<polygon fill="#ffffb3" stroke="#000000" points="1801.5646,-190 1656.4354,-190 1656.4354,-154 1801.5646,-154 1801.5646,-190"/>
<text text-anchor="middle" x="1729" y="-167.8" font-family="Times,serif" font-size="14.00" fill="#000000">NavHeaderComponent</text>
</g>
<!-- NavHeaderComponent&#45;&gt;RootModule -->
<g id="edge8" class="edge">
<title>NavHeaderComponent&#45;&gt;RootModule</title>
<path fill="none" stroke="#000000" d="M1729,-190.2222C1729,-208.8285 1729,-235 1729,-235 1729,-235 1314.608,-235 1314.608,-235"/>
<polygon fill="#000000" stroke="#000000" points="1314.6081,-231.5001 1304.608,-235 1314.608,-238.5001 1314.6081,-231.5001"/>
</g>
<!-- RegisterComponent -->
<g id="node10" class="node">
<title>RegisterComponent</title>
<polygon fill="#ffffb3" stroke="#000000" points="1637.9846,-190 1510.0154,-190 1510.0154,-154 1637.9846,-154 1637.9846,-190"/>
<text text-anchor="middle" x="1574" y="-167.8" font-family="Times,serif" font-size="14.00" fill="#000000">RegisterComponent</text>
</g>
<!-- RegisterComponent&#45;&gt;RootModule -->
<g id="edge9" class="edge">
<title>RegisterComponent&#45;&gt;RootModule</title>
<path fill="none" stroke="#000000" d="M1574,-190.0336C1574,-207.0597 1574,-230 1574,-230 1574,-230 1314.5213,-230 1314.5213,-230"/>
<polygon fill="#000000" stroke="#000000" points="1314.5213,-226.5001 1304.5213,-230 1314.5213,-233.5001 1314.5213,-226.5001"/>
</g>
<!-- StaticSidebarComponent -->
<g id="node11" class="node">
<title>StaticSidebarComponent</title>
<polygon fill="#ffffb3" stroke="#000000" points="1491.979,-190 1336.021,-190 1336.021,-154 1491.979,-154 1491.979,-190"/>
<text text-anchor="middle" x="1414" y="-167.8" font-family="Times,serif" font-size="14.00" fill="#000000">StaticSidebarComponent</text>
</g>
<!-- StaticSidebarComponent&#45;&gt;RootModule -->
<g id="edge10" class="edge">
<title>StaticSidebarComponent&#45;&gt;RootModule</title>
<path fill="none" stroke="#000000" d="M1414,-190.2396C1414,-205.5706 1414,-225 1414,-225 1414,-225 1314.4344,-225 1314.4344,-225"/>
<polygon fill="#000000" stroke="#000000" points="1314.4344,-221.5001 1304.4344,-225 1314.4344,-228.5001 1314.4344,-221.5001"/>
</g>
<!-- StockComponent -->
<g id="node12" class="node">
<title>StockComponent</title>
<polygon fill="#ffffb3" stroke="#000000" points="1317.7204,-190 1204.2796,-190 1204.2796,-154 1317.7204,-154 1317.7204,-190"/>
<text text-anchor="middle" x="1261" y="-167.8" font-family="Times,serif" font-size="14.00" fill="#000000">StockComponent</text>
</g>
<!-- StockComponent&#45;&gt;RootModule -->
<g id="edge11" class="edge">
<title>StockComponent&#45;&gt;RootModule</title>
<path fill="none" stroke="#000000" d="M1261,-190.1061C1261,-190.1061 1261,-208.991 1261,-208.991"/>
<polygon fill="#000000" stroke="#000000" points="1257.5001,-208.9909 1261,-218.991 1264.5001,-208.991 1257.5001,-208.9909"/>
</g>
<!-- TableUpdateTimeComponent -->
<g id="node13" class="node">
<title>TableUpdateTimeComponent</title>
<polygon fill="#ffffb3" stroke="#000000" points="1186.6797,-190 1003.3203,-190 1003.3203,-154 1186.6797,-154 1186.6797,-190"/>
<text text-anchor="middle" x="1095" y="-167.8" font-family="Times,serif" font-size="14.00" fill="#000000">TableUpdateTimeComponent</text>
</g>
<!-- TableUpdateTimeComponent&#45;&gt;RootModule -->
<g id="edge12" class="edge">
<title>TableUpdateTimeComponent&#45;&gt;RootModule</title>
<path fill="none" stroke="#000000" d="M1095,-190.2396C1095,-205.5706 1095,-225 1095,-225 1095,-225 1207.3855,-225 1207.3855,-225"/>
<polygon fill="#000000" stroke="#000000" points="1207.3855,-228.5001 1217.3855,-225 1207.3854,-221.5001 1207.3855,-228.5001"/>
</g>
<!-- AppComponent  -->
<g id="node16" class="node">
<title>AppComponent </title>
<polygon fill="#fb8072" stroke="#000000" points="1315.439,-323 1206.561,-323 1206.561,-287 1315.439,-287 1315.439,-323"/>
<text text-anchor="middle" x="1261" y="-300.8" font-family="Times,serif" font-size="14.00" fill="#000000">AppComponent </text>
</g>
<!-- RootModule&#45;&gt;AppComponent  -->
<g id="edge15" class="edge">
<title>RootModule&#45;&gt;AppComponent </title>
<path fill="none" stroke="#000000" stroke-dasharray="5,2" d="M1246.5372,-255.2228C1246.5372,-255.2228 1246.5372,-276.7269 1246.5372,-276.7269"/>
<polygon fill="#000000" stroke="#000000" points="1243.0373,-276.7269 1246.5372,-286.7269 1250.0373,-276.727 1243.0373,-276.7269"/>
</g>
<!-- RootModule&#45;&gt;AppComponent  -->
<g id="edge16" class="edge">
<title>RootModule&#45;&gt;AppComponent </title>
<path fill="none" stroke="#000000" stroke-dasharray="1,5" d="M1275.4628,-255.2228C1275.4628,-255.2228 1275.4628,-276.7269 1275.4628,-276.7269"/>
<polygon fill="#000000" stroke="#000000" points="1271.9629,-276.7269 1275.4628,-286.7269 1278.9629,-276.727 1271.9629,-276.7269"/>
</g>
<!-- RootRoutingModule -->
<g id="node15" class="node">
<title>RootRoutingModule</title>
<polygon fill="#8dd3c7" stroke="#000000" points="978.8948,-190 975.8948,-194 954.8948,-194 951.8948,-190 847.1052,-190 847.1052,-154 978.8948,-154 978.8948,-190"/>
<text text-anchor="middle" x="913" y="-167.8" font-family="Times,serif" font-size="14.00" fill="#000000">RootRoutingModule</text>
</g>
<!-- RootRoutingModule&#45;&gt;RootModule -->
<g id="edge14" class="edge">
<title>RootRoutingModule&#45;&gt;RootModule</title>
<path fill="none" stroke="#000000" d="M913,-190.0336C913,-207.0597 913,-230 913,-230 913,-230 1207.6292,-230 1207.6292,-230"/>
<polygon fill="#000000" stroke="#000000" points="1207.6292,-233.5001 1217.6292,-230 1207.6292,-226.5001 1207.6292,-233.5001"/>
</g>
<!-- AuthService -->
<g id="node17" class="node">
<title>AuthService</title>
<ellipse fill="#fdb462" stroke="#000000" cx="764" cy="-172" rx="59.1083" ry="18"/>
<text text-anchor="middle" x="764" y="-167.8" font-family="Times,serif" font-size="14.00" fill="#000000">AuthService</text>
</g>
<!-- AuthService&#45;&gt;RootModule -->
<g id="edge17" class="edge">
<title>AuthService&#45;&gt;RootModule</title>
<path fill="none" stroke="#000000" d="M764,-190.2222C764,-208.8285 764,-235 764,-235 764,-235 1207.3302,-235 1207.3302,-235"/>
<polygon fill="#000000" stroke="#000000" points="1207.3302,-238.5001 1217.3302,-235 1207.3301,-231.5001 1207.3302,-238.5001"/>
</g>
<!-- Interceptor -->
<g id="node18" class="node">
<title>Interceptor</title>
<ellipse fill="#fdb462" stroke="#000000" cx="633" cy="-172" rx="53.2878" ry="18"/>
<text text-anchor="middle" x="633" y="-167.8" font-family="Times,serif" font-size="14.00" fill="#000000">Interceptor</text>
</g>
<!-- Interceptor&#45;&gt;RootModule -->
<g id="edge18" class="edge">
<title>Interceptor&#45;&gt;RootModule</title>
<path fill="none" stroke="#000000" d="M633,-190.2228C633,-210.3652 633,-240 633,-240 633,-240 1207.3389,-240 1207.3389,-240"/>
<polygon fill="#000000" stroke="#000000" points="1207.3389,-243.5001 1217.3389,-240 1207.3388,-236.5001 1207.3389,-243.5001"/>
</g>
<!-- TokenStorage -->
<g id="node19" class="node">
<title>TokenStorage</title>
<ellipse fill="#fdb462" stroke="#000000" cx="496" cy="-172" rx="65.4111" ry="18"/>
<text text-anchor="middle" x="496" y="-167.8" font-family="Times,serif" font-size="14.00" fill="#000000">TokenStorage</text>
</g>
<!-- TokenStorage&#45;&gt;RootModule -->
<g id="edge19" class="edge">
<title>TokenStorage&#45;&gt;RootModule</title>
<path fill="none" stroke="#000000" d="M496,-190.0449C496,-211.6623 496,-245 496,-245 496,-245 1207.6784,-245 1207.6784,-245"/>
<polygon fill="#000000" stroke="#000000" points="1207.6784,-248.5001 1217.6784,-245 1207.6784,-241.5001 1207.6784,-248.5001"/>
</g>
<!-- MainComponent -->
<g id="node20" class="node">
<title>MainComponent</title>
<polygon fill="#ffffb3" stroke="#000000" points="3209.3823,-122 3098.6177,-122 3098.6177,-86 3209.3823,-86 3209.3823,-122"/>
<text text-anchor="middle" x="3154" y="-99.8" font-family="Times,serif" font-size="14.00" fill="#000000">MainComponent</text>
</g>
<!-- UserModule -->
<g id="node25" class="node">
<title>UserModule</title>
<polygon fill="#8dd3c7" stroke="#000000" points="2793.9762,-190 2790.9762,-194 2769.9762,-194 2766.9762,-190 2708.0238,-190 2708.0238,-154 2793.9762,-154 2793.9762,-190"/>
<text text-anchor="middle" x="2751" y="-167.8" font-family="Times,serif" font-size="14.00" fill="#000000">UserModule</text>
</g>
<!-- MainComponent&#45;&gt;UserModule -->
<g id="edge20" class="edge">
<title>MainComponent&#45;&gt;UserModule</title>
<path fill="none" stroke="#000000" d="M3154,-122.2921C3154,-144.2057 3154,-178 3154,-178 3154,-178 2804.1281,-178 2804.1281,-178"/>
<polygon fill="#000000" stroke="#000000" points="2804.1281,-174.5001 2794.1281,-178 2804.128,-181.5001 2804.1281,-174.5001"/>
</g>
<!-- UserBuyOffersComponent -->
<g id="node21" class="node">
<title>UserBuyOffersComponent</title>
<polygon fill="#ffffb3" stroke="#000000" points="3080.3431,-122 2913.6569,-122 2913.6569,-86 3080.3431,-86 3080.3431,-122"/>
<text text-anchor="middle" x="2997" y="-99.8" font-family="Times,serif" font-size="14.00" fill="#000000">UserBuyOffersComponent</text>
</g>
<!-- UserBuyOffersComponent&#45;&gt;UserModule -->
<g id="edge21" class="edge">
<title>UserBuyOffersComponent&#45;&gt;UserModule</title>
<path fill="none" stroke="#000000" d="M2997,-122.2667C2997,-140.5552 2997,-166 2997,-166 2997,-166 2804.1314,-166 2804.1314,-166"/>
<polygon fill="#000000" stroke="#000000" points="2804.1315,-162.5001 2794.1314,-166 2804.1314,-169.5001 2804.1315,-162.5001"/>
</g>
<!-- UserEditComponent -->
<g id="node22" class="node">
<title>UserEditComponent</title>
<polygon fill="#ffffb3" stroke="#000000" points="2895.5926,-122 2764.4074,-122 2764.4074,-86 2895.5926,-86 2895.5926,-122"/>
<text text-anchor="middle" x="2830" y="-99.8" font-family="Times,serif" font-size="14.00" fill="#000000">UserEditComponent</text>
</g>
<!-- UserEditComponent&#45;&gt;UserModule -->
<g id="edge22" class="edge">
<title>UserEditComponent&#45;&gt;UserModule</title>
<path fill="none" stroke="#000000" d="M2779.2209,-122.2228C2779.2209,-122.2228 2779.2209,-143.7269 2779.2209,-143.7269"/>
<polygon fill="#000000" stroke="#000000" points="2775.721,-143.7269 2779.2209,-153.7269 2782.721,-143.727 2775.721,-143.7269"/>
</g>
<!-- UserHistoryComponent -->
<g id="node23" class="node">
<title>UserHistoryComponent</title>
<polygon fill="#ffffb3" stroke="#000000" points="2746.752,-122 2597.248,-122 2597.248,-86 2746.752,-86 2746.752,-122"/>
<text text-anchor="middle" x="2672" y="-99.8" font-family="Times,serif" font-size="14.00" fill="#000000">UserHistoryComponent</text>
</g>
<!-- UserHistoryComponent&#45;&gt;UserModule -->
<g id="edge23" class="edge">
<title>UserHistoryComponent&#45;&gt;UserModule</title>
<path fill="none" stroke="#000000" d="M2727.4439,-122.2228C2727.4439,-122.2228 2727.4439,-143.7269 2727.4439,-143.7269"/>
<polygon fill="#000000" stroke="#000000" points="2723.944,-143.7269 2727.4439,-153.7269 2730.944,-143.727 2723.944,-143.7269"/>
</g>
<!-- UserSellOffersComponent -->
<g id="node24" class="node">
<title>UserSellOffersComponent</title>
<polygon fill="#ffffb3" stroke="#000000" points="2578.785,-122 2413.215,-122 2413.215,-86 2578.785,-86 2578.785,-122"/>
<text text-anchor="middle" x="2496" y="-99.8" font-family="Times,serif" font-size="14.00" fill="#000000">UserSellOffersComponent</text>
</g>
<!-- UserSellOffersComponent&#45;&gt;UserModule -->
<g id="edge24" class="edge">
<title>UserSellOffersComponent&#45;&gt;UserModule</title>
<path fill="none" stroke="#000000" d="M2496,-122.2667C2496,-140.5552 2496,-166 2496,-166 2496,-166 2697.7427,-166 2697.7427,-166"/>
<polygon fill="#000000" stroke="#000000" points="2697.7428,-169.5001 2707.7427,-166 2697.7427,-162.5001 2697.7428,-169.5001"/>
</g>
<!-- MainComponent  -->
<g id="node27" class="node">
<title>MainComponent </title>
<polygon fill="#80b1d3" stroke="#000000" points="2808.3828,-255 2693.6172,-255 2693.6172,-219 2808.3828,-219 2808.3828,-255"/>
<text text-anchor="middle" x="2751" y="-232.8" font-family="Times,serif" font-size="14.00" fill="#000000">MainComponent </text>
</g>
<!-- UserModule&#45;&gt;MainComponent  -->
<g id="edge26" class="edge">
<title>UserModule&#45;&gt;MainComponent </title>
<path fill="none" stroke="#000000" stroke-dasharray="1,5" d="M2751,-190.1061C2751,-190.1061 2751,-208.991 2751,-208.991"/>
<polygon fill="#000000" stroke="#000000" points="2747.5001,-208.9909 2751,-218.991 2754.5001,-208.991 2747.5001,-208.9909"/>
</g>
<!-- userRoutingModule -->
<g id="node26" class="node">
<title>userRoutingModule</title>
<polygon fill="#8dd3c7" stroke="#000000" points="2388.9874,-122 2385.9874,-126 2364.9874,-126 2361.9874,-122 2261.0126,-122 2261.0126,-86 2388.9874,-86 2388.9874,-122"/>
<text text-anchor="middle" x="2325" y="-99.8" font-family="Times,serif" font-size="14.00" fill="#000000">userRoutingModule</text>
</g>
<!-- userRoutingModule&#45;&gt;UserModule -->
<g id="edge25" class="edge">
<title>userRoutingModule&#45;&gt;UserModule</title>
<path fill="none" stroke="#000000" d="M2325,-122.2921C2325,-144.2057 2325,-178 2325,-178 2325,-178 2697.8085,-178 2697.8085,-178"/>
<polygon fill="#000000" stroke="#000000" points="2697.8085,-181.5001 2707.8085,-178 2697.8085,-174.5001 2697.8085,-181.5001"/>
</g>
</g>
</svg>
