<?xml version="1.0" encoding="UTF-8" standalone="no"?>
<!DOCTYPE svg PUBLIC "-//W3C//DTD SVG 1.1//EN"
 "http://www.w3.org/Graphics/SVG/1.1/DTD/svg11.dtd">
<!-- Generated by graphviz version 2.40.1 (20161225.0304)
 -->
<!-- Title: dependencies Pages: 1 -->
<svg width="2834pt" height="284pt"
 viewBox="0.00 0.00 2834.00 284.00" xmlns="http://www.w3.org/2000/svg" xmlns:xlink="http://www.w3.org/1999/xlink">
<g id="graph0" class="graph" transform="scale(1 1) rotate(0) translate(4 280)">
<title>dependencies</title>
<polygon fill="#ffffff" stroke="transparent" points="-4,4 -4,-280 2830,-280 2830,4 -4,4"/>
<text text-anchor="start" x="1392.0091" y="-42.4" font-family="sans-serif" font-weight="bold" font-size="14.00" fill="#000000">Legend</text>
<polygon fill="#ffffb3" stroke="transparent" points="1179,-10 1179,-30 1199,-30 1199,-10 1179,-10"/>
<text text-anchor="start" x="1202.629" y="-15.4" font-family="sans-serif" font-size="14.00" fill="#000000"> &#160;Declarations</text>
<polygon fill="#8dd3c7" stroke="transparent" points="1292,-10 1292,-30 1312,-30 1312,-10 1292,-10"/>
<text text-anchor="start" x="1315.7251" y="-15.4" font-family="sans-serif" font-size="14.00" fill="#000000"> &#160;Module</text>
<polygon fill="#80b1d3" stroke="transparent" points="1378,-10 1378,-30 1398,-30 1398,-10 1378,-10"/>
<text text-anchor="start" x="1401.7812" y="-15.4" font-family="sans-serif" font-size="14.00" fill="#000000"> &#160;Bootstrap</text>
<polygon fill="#fdb462" stroke="transparent" points="1475,-10 1475,-30 1495,-30 1495,-10 1475,-10"/>
<text text-anchor="start" x="1498.6732" y="-15.4" font-family="sans-serif" font-size="14.00" fill="#000000"> &#160;Providers</text>
<polygon fill="#fb8072" stroke="transparent" points="1571,-10 1571,-30 1591,-30 1591,-10 1571,-10"/>
<text text-anchor="start" x="1594.7258" y="-15.4" font-family="sans-serif" font-size="14.00" fill="#000000"> &#160;Exports</text>
<g id="clust1" class="cluster">
<title>cluster_RootModule</title>
<polygon fill="none" stroke="#000000" stroke-dasharray="1,5" points="8,-70 8,-268 1830,-268 1830,-70 8,-70"/>
</g>
<g id="clust2" class="cluster">
<title>cluster_RootModule_declarations</title>
<polygon fill="none" stroke="#000000" points="588,-78 588,-130 1822,-130 1822,-78 588,-78"/>
</g>
<g id="clust11" class="cluster">
<title>cluster_RootModule_imports</title>
<polygon fill="none" stroke="#000000" points="432,-78 432,-130 580,-130 580,-78 432,-78"/>
</g>
<g id="clust12" class="cluster">
<title>cluster_RootModule_exports</title>
<polygon fill="none" stroke="#000000" points="868,-208 868,-260 992,-260 992,-208 868,-208"/>
</g>
<g id="clust14" class="cluster">
<title>cluster_RootModule_providers</title>
<polygon fill="none" stroke="#000000" points="16,-78 16,-130 424,-130 424,-78 16,-78"/>
</g>
<g id="clust21" class="cluster">
<title>cluster_UserModule</title>
<polygon fill="none" stroke="#000000" stroke-dasharray="1,5" points="1838,-70 1838,-268 2818,-268 2818,-70 1838,-70"/>
</g>
<g id="clust22" class="cluster">
<title>cluster_UserModule_declarations</title>
<polygon fill="none" stroke="#000000" points="1998,-78 1998,-130 2810,-130 2810,-78 1998,-78"/>
</g>
<g id="clust28" class="cluster">
<title>cluster_UserModule_imports</title>
<polygon fill="none" stroke="#000000" points="1846,-78 1846,-130 1990,-130 1990,-78 1846,-78"/>
</g>
<g id="clust30" class="cluster">
<title>cluster_UserModule_bootstrap</title>
<polygon fill="none" stroke="#000000" points="2279,-208 2279,-260 2409,-260 2409,-208 2279,-208"/>
</g>
<!-- AppComponent -->
<g id="node1" class="node">
<title>AppComponent</title>
<polygon fill="#ffffb3" stroke="#000000" points="1813.9399,-122 1708.0601,-122 1708.0601,-86 1813.9399,-86 1813.9399,-122"/>
<text text-anchor="middle" x="1761" y="-99.8" font-family="Times,serif" font-size="14.00" fill="#000000">AppComponent</text>
</g>
<!-- RootModule -->
<g id="node9" class="node">
<title>RootModule</title>
<polygon fill="#8dd3c7" stroke="#000000" points="973.2773,-187 970.2773,-191 949.2773,-191 946.2773,-187 886.7227,-187 886.7227,-151 973.2773,-151 973.2773,-187"/>
<text text-anchor="middle" x="930" y="-164.8" font-family="Times,serif" font-size="14.00" fill="#000000">RootModule</text>
</g>
<!-- AppComponent&#45;&gt;RootModule -->
<g id="edge1" class="edge">
<title>AppComponent&#45;&gt;RootModule</title>
<path fill="none" stroke="#000000" d="M1761,-122.3228C1761,-145.6602 1761,-183 1761,-183 1761,-183 983.5081,-183 983.5081,-183"/>
<polygon fill="#000000" stroke="#000000" points="983.5082,-179.5001 973.5081,-183 983.5081,-186.5001 983.5082,-179.5001"/>
</g>
<!-- HomeComponent -->
<g id="node2" class="node">
<title>HomeComponent</title>
<polygon fill="#ffffb3" stroke="#000000" points="1690.5451,-122 1575.4549,-122 1575.4549,-86 1690.5451,-86 1690.5451,-122"/>
<text text-anchor="middle" x="1633" y="-99.8" font-family="Times,serif" font-size="14.00" fill="#000000">HomeComponent</text>
</g>
<!-- HomeComponent&#45;&gt;RootModule -->
<g id="edge2" class="edge">
<title>HomeComponent&#45;&gt;RootModule</title>
<path fill="none" stroke="#000000" d="M1633,-122.2921C1633,-144.2057 1633,-178 1633,-178 1633,-178 983.4453,-178 983.4453,-178"/>
<polygon fill="#000000" stroke="#000000" points="983.4453,-174.5001 973.4453,-178 983.4452,-181.5001 983.4453,-174.5001"/>
</g>
<!-- LoginFormComponent -->
<g id="node3" class="node">
<title>LoginFormComponent</title>
<polygon fill="#ffffb3" stroke="#000000" points="1557.6094,-122 1412.3906,-122 1412.3906,-86 1557.6094,-86 1557.6094,-122"/>
<text text-anchor="middle" x="1485" y="-99.8" font-family="Times,serif" font-size="14.00" fill="#000000">LoginFormComponent</text>
</g>
<!-- LoginFormComponent&#45;&gt;RootModule -->
<g id="edge3" class="edge">
<title>LoginFormComponent&#45;&gt;RootModule</title>
<path fill="none" stroke="#000000" d="M1485,-122.0267C1485,-142.7672 1485,-174 1485,-174 1485,-174 983.5499,-174 983.5499,-174"/>
<polygon fill="#000000" stroke="#000000" points="983.55,-170.5001 973.5499,-174 983.5499,-177.5001 983.55,-170.5001"/>
</g>
<!-- NavHeaderComponent -->
<g id="node4" class="node">
<title>NavHeaderComponent</title>
<polygon fill="#ffffb3" stroke="#000000" points="1394.5646,-122 1249.4354,-122 1249.4354,-86 1394.5646,-86 1394.5646,-122"/>
<text text-anchor="middle" x="1322" y="-99.8" font-family="Times,serif" font-size="14.00" fill="#000000">NavHeaderComponent</text>
</g>
<!-- NavHeaderComponent&#45;&gt;RootModule -->
<g id="edge4" class="edge">
<title>NavHeaderComponent&#45;&gt;RootModule</title>
<path fill="none" stroke="#000000" d="M1322,-122.1061C1322,-141.3391 1322,-169 1322,-169 1322,-169 983.4486,-169 983.4486,-169"/>
<polygon fill="#000000" stroke="#000000" points="983.4486,-165.5001 973.4486,-169 983.4486,-172.5001 983.4486,-165.5001"/>
</g>
<!-- RegisterComponent -->
<g id="node5" class="node">
<title>RegisterComponent</title>
<polygon fill="#ffffb3" stroke="#000000" points="1230.9846,-122 1103.0154,-122 1103.0154,-86 1230.9846,-86 1230.9846,-122"/>
<text text-anchor="middle" x="1167" y="-99.8" font-family="Times,serif" font-size="14.00" fill="#000000">RegisterComponent</text>
</g>
<!-- RegisterComponent&#45;&gt;RootModule -->
<g id="edge5" class="edge">
<title>RegisterComponent&#45;&gt;RootModule</title>
<path fill="none" stroke="#000000" d="M1167,-122.302C1167,-140.2699 1167,-165 1167,-165 1167,-165 983.4695,-165 983.4695,-165"/>
<polygon fill="#000000" stroke="#000000" points="983.4695,-161.5001 973.4695,-165 983.4694,-168.5001 983.4695,-161.5001"/>
</g>
<!-- StaticSidebarComponent -->
<g id="node6" class="node">
<title>StaticSidebarComponent</title>
<polygon fill="#ffffb3" stroke="#000000" points="1084.979,-122 929.021,-122 929.021,-86 1084.979,-86 1084.979,-122"/>
<text text-anchor="middle" x="1007" y="-99.8" font-family="Times,serif" font-size="14.00" fill="#000000">StaticSidebarComponent</text>
</g>
<!-- StaticSidebarComponent&#45;&gt;RootModule -->
<g id="edge6" class="edge">
<title>StaticSidebarComponent&#45;&gt;RootModule</title>
<path fill="none" stroke="#000000" d="M951.1995,-122.1061C951.1995,-122.1061 951.1995,-140.991 951.1995,-140.991"/>
<polygon fill="#000000" stroke="#000000" points="947.6996,-140.9909 951.1995,-150.991 954.6996,-140.991 947.6996,-140.9909"/>
</g>
<!-- StockComponent -->
<g id="node7" class="node">
<title>StockComponent</title>
<polygon fill="#ffffb3" stroke="#000000" points="910.7204,-122 797.2796,-122 797.2796,-86 910.7204,-86 910.7204,-122"/>
<text text-anchor="middle" x="854" y="-99.8" font-family="Times,serif" font-size="14.00" fill="#000000">StockComponent</text>
</g>
<!-- StockComponent&#45;&gt;RootModule -->
<g id="edge7" class="edge">
<title>StockComponent&#45;&gt;RootModule</title>
<path fill="none" stroke="#000000" d="M898.6108,-122.1061C898.6108,-122.1061 898.6108,-140.991 898.6108,-140.991"/>
<polygon fill="#000000" stroke="#000000" points="895.1109,-140.9909 898.6108,-150.991 902.1109,-140.991 895.1109,-140.9909"/>
</g>
<!-- TableUpdateTimeComponent -->
<g id="node8" class="node">
<title>TableUpdateTimeComponent</title>
<polygon fill="#ffffb3" stroke="#000000" points="779.6797,-122 596.3203,-122 596.3203,-86 779.6797,-86 779.6797,-122"/>
<text text-anchor="middle" x="688" y="-99.8" font-family="Times,serif" font-size="14.00" fill="#000000">TableUpdateTimeComponent</text>
</g>
<!-- TableUpdateTimeComponent&#45;&gt;RootModule -->
<g id="edge8" class="edge">
<title>TableUpdateTimeComponent&#45;&gt;RootModule</title>
<path fill="none" stroke="#000000" d="M688,-122.2396C688,-137.5706 688,-157 688,-157 688,-157 876.4558,-157 876.4558,-157"/>
<polygon fill="#000000" stroke="#000000" points="876.4558,-160.5001 886.4558,-157 876.4557,-153.5001 876.4558,-160.5001"/>
</g>
<!-- AppComponent  -->
<g id="node11" class="node">
<title>AppComponent </title>
<polygon fill="#fb8072" stroke="#000000" points="984.439,-252 875.561,-252 875.561,-216 984.439,-216 984.439,-252"/>
<text text-anchor="middle" x="930" y="-229.8" font-family="Times,serif" font-size="14.00" fill="#000000">AppComponent </text>
</g>
<!-- RootModule&#45;&gt;AppComponent  -->
<g id="edge10" class="edge">
<title>RootModule&#45;&gt;AppComponent </title>
<path fill="none" stroke="#000000" stroke-dasharray="5,2" d="M915.5372,-187.1061C915.5372,-187.1061 915.5372,-205.991 915.5372,-205.991"/>
<polygon fill="#000000" stroke="#000000" points="912.0373,-205.9909 915.5372,-215.991 919.0373,-205.991 912.0373,-205.9909"/>
</g>
<!-- RootModule&#45;&gt;AppComponent  -->
<g id="edge11" class="edge">
<title>RootModule&#45;&gt;AppComponent </title>
<path fill="none" stroke="#000000" stroke-dasharray="1,5" d="M944.4628,-187.1061C944.4628,-187.1061 944.4628,-205.991 944.4628,-205.991"/>
<polygon fill="#000000" stroke="#000000" points="940.9629,-205.9909 944.4628,-215.991 947.9629,-205.991 940.9629,-205.9909"/>
</g>
<!-- RootRoutingModule -->
<g id="node10" class="node">
<title>RootRoutingModule</title>
<polygon fill="#8dd3c7" stroke="#000000" points="571.8948,-122 568.8948,-126 547.8948,-126 544.8948,-122 440.1052,-122 440.1052,-86 571.8948,-86 571.8948,-122"/>
<text text-anchor="middle" x="506" y="-99.8" font-family="Times,serif" font-size="14.00" fill="#000000">RootRoutingModule</text>
</g>
<!-- RootRoutingModule&#45;&gt;RootModule -->
<g id="edge9" class="edge">
<title>RootRoutingModule&#45;&gt;RootModule</title>
<path fill="none" stroke="#000000" d="M506,-122.0225C506,-139.3734 506,-163 506,-163 506,-163 876.6171,-163 876.6171,-163"/>
<polygon fill="#000000" stroke="#000000" points="876.6172,-166.5001 886.6171,-163 876.6171,-159.5001 876.6172,-166.5001"/>
</g>
<!-- AuthService -->
<g id="node12" class="node">
<title>AuthService</title>
<ellipse fill="#fdb462" stroke="#000000" cx="357" cy="-104" rx="59.1083" ry="18"/>
<text text-anchor="middle" x="357" y="-99.8" font-family="Times,serif" font-size="14.00" fill="#000000">AuthService</text>
</g>
<!-- AuthService&#45;&gt;RootModule -->
<g id="edge12" class="edge">
<title>AuthService&#45;&gt;RootModule</title>
<path fill="none" stroke="#000000" d="M357,-122.1061C357,-141.3391 357,-169 357,-169 357,-169 876.4616,-169 876.4616,-169"/>
<polygon fill="#000000" stroke="#000000" points="876.4616,-172.5001 886.4616,-169 876.4615,-165.5001 876.4616,-172.5001"/>
</g>
<!-- Interceptor -->
<g id="node13" class="node">
<title>Interceptor</title>
<ellipse fill="#fdb462" stroke="#000000" cx="226" cy="-104" rx="53.2878" ry="18"/>
<text text-anchor="middle" x="226" y="-99.8" font-family="Times,serif" font-size="14.00" fill="#000000">Interceptor</text>
</g>
<!-- Interceptor&#45;&gt;RootModule -->
<g id="edge13" class="edge">
<title>Interceptor&#45;&gt;RootModule</title>
<path fill="none" stroke="#000000" d="M226,-122.2843C226,-143.3211 226,-175 226,-175 226,-175 876.4929,-175 876.4929,-175"/>
<polygon fill="#000000" stroke="#000000" points="876.493,-178.5001 886.4929,-175 876.4929,-171.5001 876.493,-178.5001"/>
</g>
<!-- TokenStorage -->
<g id="node14" class="node">
<title>TokenStorage</title>
<ellipse fill="#fdb462" stroke="#000000" cx="89" cy="-104" rx="65.4111" ry="18"/>
<text text-anchor="middle" x="89" y="-99.8" font-family="Times,serif" font-size="14.00" fill="#000000">TokenStorage</text>
</g>
<!-- TokenStorage&#45;&gt;RootModule -->
<g id="edge14" class="edge">
<title>TokenStorage&#45;&gt;RootModule</title>
<path fill="none" stroke="#000000" d="M89,-122.2479C89,-145.0179 89,-181 89,-181 89,-181 876.5551,-181 876.5551,-181"/>
<polygon fill="#000000" stroke="#000000" points="876.5552,-184.5001 886.5551,-181 876.5551,-177.5001 876.5552,-184.5001"/>
</g>
<!-- MainComponent -->
<g id="node15" class="node">
<title>MainComponent</title>
<polygon fill="#ffffb3" stroke="#000000" points="2802.3823,-122 2691.6177,-122 2691.6177,-86 2802.3823,-86 2802.3823,-122"/>
<text text-anchor="middle" x="2747" y="-99.8" font-family="Times,serif" font-size="14.00" fill="#000000">MainComponent</text>
</g>
<!-- UserModule -->
<g id="node20" class="node">
<title>UserModule</title>
<polygon fill="#8dd3c7" stroke="#000000" points="2386.9762,-187 2383.9762,-191 2362.9762,-191 2359.9762,-187 2301.0238,-187 2301.0238,-151 2386.9762,-151 2386.9762,-187"/>
<text text-anchor="middle" x="2344" y="-164.8" font-family="Times,serif" font-size="14.00" fill="#000000">UserModule</text>
</g>
<!-- MainComponent&#45;&gt;UserModule -->
<g id="edge15" class="edge">
<title>MainComponent&#45;&gt;UserModule</title>
<path fill="none" stroke="#000000" d="M2747,-122.2843C2747,-143.3211 2747,-175 2747,-175 2747,-175 2397.1281,-175 2397.1281,-175"/>
<polygon fill="#000000" stroke="#000000" points="2397.1281,-171.5001 2387.1281,-175 2397.128,-178.5001 2397.1281,-171.5001"/>
</g>
<!-- UserBuyOffersComponent -->
<g id="node16" class="node">
<title>UserBuyOffersComponent</title>
<polygon fill="#ffffb3" stroke="#000000" points="2673.3431,-122 2506.6569,-122 2506.6569,-86 2673.3431,-86 2673.3431,-122"/>
<text text-anchor="middle" x="2590" y="-99.8" font-family="Times,serif" font-size="14.00" fill="#000000">UserBuyOffersComponent</text>
</g>
<!-- UserBuyOffersComponent&#45;&gt;UserModule -->
<g id="edge16" class="edge">
<title>UserBuyOffersComponent&#45;&gt;UserModule</title>
<path fill="none" stroke="#000000" d="M2590,-122.0225C2590,-139.3734 2590,-163 2590,-163 2590,-163 2397.1314,-163 2397.1314,-163"/>
<polygon fill="#000000" stroke="#000000" points="2397.1315,-159.5001 2387.1314,-163 2397.1314,-166.5001 2397.1315,-159.5001"/>
</g>
<!-- UserEditComponent -->
<g id="node17" class="node">
<title>UserEditComponent</title>
<polygon fill="#ffffb3" stroke="#000000" points="2488.5926,-122 2357.4074,-122 2357.4074,-86 2488.5926,-86 2488.5926,-122"/>
<text text-anchor="middle" x="2423" y="-99.8" font-family="Times,serif" font-size="14.00" fill="#000000">UserEditComponent</text>
</g>
<!-- UserEditComponent&#45;&gt;UserModule -->
<g id="edge17" class="edge">
<title>UserEditComponent&#45;&gt;UserModule</title>
<path fill="none" stroke="#000000" d="M2372.2209,-122.1061C2372.2209,-122.1061 2372.2209,-140.991 2372.2209,-140.991"/>
<polygon fill="#000000" stroke="#000000" points="2368.721,-140.9909 2372.2209,-150.991 2375.721,-140.991 2368.721,-140.9909"/>
</g>
<!-- UserHistoryComponent -->
<g id="node18" class="node">
<title>UserHistoryComponent</title>
<polygon fill="#ffffb3" stroke="#000000" points="2339.752,-122 2190.248,-122 2190.248,-86 2339.752,-86 2339.752,-122"/>
<text text-anchor="middle" x="2265" y="-99.8" font-family="Times,serif" font-size="14.00" fill="#000000">UserHistoryComponent</text>
</g>
<!-- UserHistoryComponent&#45;&gt;UserModule -->
<g id="edge18" class="edge">
<title>UserHistoryComponent&#45;&gt;UserModule</title>
<path fill="none" stroke="#000000" d="M2320.4439,-122.1061C2320.4439,-122.1061 2320.4439,-140.991 2320.4439,-140.991"/>
<polygon fill="#000000" stroke="#000000" points="2316.944,-140.9909 2320.4439,-150.991 2323.944,-140.991 2316.944,-140.9909"/>
</g>
<!-- UserSellOffersComponent -->
<g id="node19" class="node">
<title>UserSellOffersComponent</title>
<polygon fill="#ffffb3" stroke="#000000" points="2171.785,-122 2006.215,-122 2006.215,-86 2171.785,-86 2171.785,-122"/>
<text text-anchor="middle" x="2089" y="-99.8" font-family="Times,serif" font-size="14.00" fill="#000000">UserSellOffersComponent</text>
</g>
<!-- UserSellOffersComponent&#45;&gt;UserModule -->
<g id="edge19" class="edge">
<title>UserSellOffersComponent&#45;&gt;UserModule</title>
<path fill="none" stroke="#000000" d="M2089,-122.1871C2089,-137.1824 2089,-156 2089,-156 2089,-156 2290.7427,-156 2290.7427,-156"/>
<polygon fill="#000000" stroke="#000000" points="2290.7428,-159.5001 2300.7427,-156 2290.7427,-152.5001 2290.7428,-159.5001"/>
</g>
<!-- MainComponent  -->
<g id="node22" class="node">
<title>MainComponent </title>
<polygon fill="#80b1d3" stroke="#000000" points="2401.3828,-252 2286.6172,-252 2286.6172,-216 2401.3828,-216 2401.3828,-252"/>
<text text-anchor="middle" x="2344" y="-229.8" font-family="Times,serif" font-size="14.00" fill="#000000">MainComponent </text>
</g>
<!-- UserModule&#45;&gt;MainComponent  -->
<g id="edge21" class="edge">
<title>UserModule&#45;&gt;MainComponent </title>
<path fill="none" stroke="#000000" stroke-dasharray="1,5" d="M2344,-187.1061C2344,-187.1061 2344,-205.991 2344,-205.991"/>
<polygon fill="#000000" stroke="#000000" points="2340.5001,-205.9909 2344,-215.991 2347.5001,-205.991 2340.5001,-205.9909"/>
</g>
<!-- userRoutingModule -->
<g id="node21" class="node">
<title>userRoutingModule</title>
<polygon fill="#8dd3c7" stroke="#000000" points="1981.9874,-122 1978.9874,-126 1957.9874,-126 1954.9874,-122 1854.0126,-122 1854.0126,-86 1981.9874,-86 1981.9874,-122"/>
<text text-anchor="middle" x="1918" y="-99.8" font-family="Times,serif" font-size="14.00" fill="#000000">userRoutingModule</text>
</g>
<!-- userRoutingModule&#45;&gt;UserModule -->
<g id="edge20" class="edge">
<title>userRoutingModule&#45;&gt;UserModule</title>
<path fill="none" stroke="#000000" d="M1918,-122.027C1918,-138.3976 1918,-160 1918,-160 1918,-160 2290.8085,-160 2290.8085,-160"/>
<polygon fill="#000000" stroke="#000000" points="2290.8085,-163.5001 2300.8085,-160 2290.8085,-156.5001 2290.8085,-163.5001"/>
</g>
</g>
</svg>
