<?xml version="1.0" encoding="UTF-8" standalone="no"?>
<!DOCTYPE svg PUBLIC "-//W3C//DTD SVG 1.1//EN"
 "http://www.w3.org/Graphics/SVG/1.1/DTD/svg11.dtd">
<!-- Generated by graphviz version 2.40.1 (20161225.0304)
 -->
<!-- Title: dependencies Pages: 1 -->
<svg width="4400pt" height="290pt"
 viewBox="0.00 0.00 4400.00 290.00" xmlns="http://www.w3.org/2000/svg" xmlns:xlink="http://www.w3.org/1999/xlink">
<g id="graph0" class="graph" transform="scale(1 1) rotate(0) translate(4 286)">
<title>dependencies</title>
<polygon fill="#ffffff" stroke="transparent" points="-4,4 -4,-286 4396,-286 4396,4 -4,4"/>
<text text-anchor="start" x="2175.0091" y="-42.4" font-family="sans-serif" font-weight="bold" font-size="14.00" fill="#000000">Legend</text>
<polygon fill="#ffffb3" stroke="transparent" points="1962,-10 1962,-30 1982,-30 1982,-10 1962,-10"/>
<text text-anchor="start" x="1985.629" y="-15.4" font-family="sans-serif" font-size="14.00" fill="#000000"> &#160;Declarations</text>
<polygon fill="#8dd3c7" stroke="transparent" points="2075,-10 2075,-30 2095,-30 2095,-10 2075,-10"/>
<text text-anchor="start" x="2098.7251" y="-15.4" font-family="sans-serif" font-size="14.00" fill="#000000"> &#160;Module</text>
<polygon fill="#80b1d3" stroke="transparent" points="2161,-10 2161,-30 2181,-30 2181,-10 2161,-10"/>
<text text-anchor="start" x="2184.7812" y="-15.4" font-family="sans-serif" font-size="14.00" fill="#000000"> &#160;Bootstrap</text>
<polygon fill="#fdb462" stroke="transparent" points="2258,-10 2258,-30 2278,-30 2278,-10 2258,-10"/>
<text text-anchor="start" x="2281.6732" y="-15.4" font-family="sans-serif" font-size="14.00" fill="#000000"> &#160;Providers</text>
<polygon fill="#fb8072" stroke="transparent" points="2354,-10 2354,-30 2374,-30 2374,-10 2354,-10"/>
<text text-anchor="start" x="2377.7258" y="-15.4" font-family="sans-serif" font-size="14.00" fill="#000000"> &#160;Exports</text>
<g id="clust1" class="cluster">
<title>cluster_OfferModule</title>
<polygon fill="none" stroke="#000000" stroke-dasharray="1,5" points="8,-70 8,-198 834,-198 834,-70 8,-70"/>
</g>
<g id="clust2" class="cluster">
<title>cluster_OfferModule_declarations</title>
<polygon fill="none" stroke="#000000" points="16,-78 16,-130 551,-130 551,-78 16,-78"/>
</g>
<g id="clust6" class="cluster">
<title>cluster_OfferModule_imports</title>
<polygon fill="none" stroke="#000000" points="559,-78 559,-130 826,-130 826,-78 559,-78"/>
</g>
<g id="clust16" class="cluster">
<title>cluster_RootModule</title>
<polygon fill="none" stroke="#000000" stroke-dasharray="1,5" points="1226,-70 1226,-274 3047,-274 3047,-70 1226,-70"/>
</g>
<g id="clust17" class="cluster">
<title>cluster_RootModule_declarations</title>
<polygon fill="none" stroke="#000000" points="1806,-78 1806,-130 3039,-130 3039,-78 1806,-78"/>
</g>
<g id="clust26" class="cluster">
<title>cluster_RootModule_imports</title>
<polygon fill="none" stroke="#000000" points="1650,-78 1650,-130 1798,-130 1798,-78 1650,-78"/>
</g>
<g id="clust27" class="cluster">
<title>cluster_RootModule_exports</title>
<polygon fill="none" stroke="#000000" points="1990,-214 1990,-266 2114,-266 2114,-214 1990,-214"/>
</g>
<g id="clust29" class="cluster">
<title>cluster_RootModule_providers</title>
<polygon fill="none" stroke="#000000" points="1234,-78 1234,-130 1642,-130 1642,-78 1234,-78"/>
</g>
<g id="clust36" class="cluster">
<title>cluster_SharedModule</title>
<polygon fill="none" stroke="#000000" stroke-dasharray="1,5" points="842,-138 842,-206 1218,-206 1218,-138 842,-138"/>
</g>
<g id="clust37" class="cluster">
<title>cluster_SharedModule_declarations</title>
<polygon fill="none" stroke="#000000" points="1036,-146 1036,-198 1210,-198 1210,-146 1036,-146"/>
</g>
<g id="clust40" class="cluster">
<title>cluster_SharedModule_exports</title>
<polygon fill="none" stroke="#000000" points="850,-146 850,-198 1028,-198 1028,-146 850,-146"/>
</g>
<g id="clust43" class="cluster">
<title>cluster_UserModule</title>
<polygon fill="none" stroke="#000000" stroke-dasharray="1,5" points="3055,-70 3055,-274 4384,-274 4384,-70 3055,-70"/>
</g>
<g id="clust44" class="cluster">
<title>cluster_UserModule_declarations</title>
<polygon fill="none" stroke="#000000" points="3215,-78 3215,-130 4376,-130 4376,-78 3215,-78"/>
</g>
<g id="clust52" class="cluster">
<title>cluster_UserModule_imports</title>
<polygon fill="none" stroke="#000000" points="3063,-78 3063,-130 3207,-130 3207,-78 3063,-78"/>
</g>
<g id="clust54" class="cluster">
<title>cluster_UserModule_bootstrap</title>
<polygon fill="none" stroke="#000000" points="3575,-214 3575,-266 3705,-266 3705,-214 3575,-214"/>
</g>
<!-- CreateBuyOfferComponent -->
<g id="node1" class="node">
<title>CreateBuyOfferComponent</title>
<polygon fill="#ffffb3" stroke="#000000" points="195.5043,-122 24.4957,-122 24.4957,-86 195.5043,-86 195.5043,-122"/>
<text text-anchor="middle" x="110" y="-99.8" font-family="Times,serif" font-size="14.00" fill="#000000">CreateBuyOfferComponent</text>
</g>
<!-- OfferModule -->
<g id="node4" class="node">
<title>OfferModule</title>
<polygon fill="#8dd3c7" stroke="#000000" points="502.8529,-190 499.8529,-194 478.8529,-194 475.8529,-190 413.1471,-190 413.1471,-154 502.8529,-154 502.8529,-190"/>
<text text-anchor="middle" x="458" y="-167.8" font-family="Times,serif" font-size="14.00" fill="#000000">OfferModule</text>
</g>
<!-- CreateBuyOfferComponent&#45;&gt;OfferModule -->
<g id="edge1" class="edge">
<title>CreateBuyOfferComponent&#45;&gt;OfferModule</title>
<path fill="none" stroke="#000000" d="M110,-122.2921C110,-144.2057 110,-178 110,-178 110,-178 402.8618,-178 402.8618,-178"/>
<polygon fill="#000000" stroke="#000000" points="402.8619,-181.5001 412.8618,-178 402.8618,-174.5001 402.8619,-181.5001"/>
</g>
<!-- CreateSellOfferComponent -->
<g id="node2" class="node">
<title>CreateSellOfferComponent</title>
<polygon fill="#ffffb3" stroke="#000000" points="542.9454,-122 373.0546,-122 373.0546,-86 542.9454,-86 542.9454,-122"/>
<text text-anchor="middle" x="458" y="-99.8" font-family="Times,serif" font-size="14.00" fill="#000000">CreateSellOfferComponent</text>
</g>
<!-- CreateSellOfferComponent&#45;&gt;OfferModule -->
<g id="edge2" class="edge">
<title>CreateSellOfferComponent&#45;&gt;OfferModule</title>
<path fill="none" stroke="#000000" d="M458,-122.2228C458,-122.2228 458,-143.7269 458,-143.7269"/>
<polygon fill="#000000" stroke="#000000" points="454.5001,-143.7269 458,-153.7269 461.5001,-143.727 454.5001,-143.7269"/>
</g>
<!-- OfferMainComponent -->
<g id="node3" class="node">
<title>OfferMainComponent</title>
<polygon fill="#ffffb3" stroke="#000000" points="354.6853,-122 213.3147,-122 213.3147,-86 354.6853,-86 354.6853,-122"/>
<text text-anchor="middle" x="284" y="-99.8" font-family="Times,serif" font-size="14.00" fill="#000000">OfferMainComponent</text>
</g>
<!-- OfferMainComponent&#45;&gt;OfferModule -->
<g id="edge3" class="edge">
<title>OfferMainComponent&#45;&gt;OfferModule</title>
<path fill="none" stroke="#000000" d="M284,-122.2667C284,-140.5552 284,-166 284,-166 284,-166 402.7378,-166 402.7378,-166"/>
<polygon fill="#000000" stroke="#000000" points="402.7378,-169.5001 412.7378,-166 402.7377,-162.5001 402.7378,-169.5001"/>
</g>
<!-- OfferRoutingModule -->
<g id="node5" class="node">
<title>OfferRoutingModule</title>
<polygon fill="#8dd3c7" stroke="#000000" points="701.4706,-122 698.4706,-126 677.4706,-126 674.4706,-122 566.5294,-122 566.5294,-86 701.4706,-86 701.4706,-122"/>
<text text-anchor="middle" x="634" y="-99.8" font-family="Times,serif" font-size="14.00" fill="#000000">OfferRoutingModule</text>
</g>
<!-- OfferRoutingModule&#45;&gt;OfferModule -->
<g id="edge4" class="edge">
<title>OfferRoutingModule&#45;&gt;OfferModule</title>
<path fill="none" stroke="#000000" d="M634,-122.0225C634,-139.3734 634,-163 634,-163 634,-163 512.8676,-163 512.8676,-163"/>
<polygon fill="#000000" stroke="#000000" points="512.8677,-159.5001 502.8676,-163 512.8676,-166.5001 512.8677,-159.5001"/>
</g>
<!-- SharedModule -->
<g id="node6" class="node">
<title>SharedModule</title>
<polygon fill="#8dd3c7" stroke="#000000" points="818.4231,-122 815.4231,-126 794.4231,-126 791.4231,-122 719.5769,-122 719.5769,-86 818.4231,-86 818.4231,-122"/>
<text text-anchor="middle" x="769" y="-99.8" font-family="Times,serif" font-size="14.00" fill="#000000">SharedModule</text>
</g>
<!-- SharedModule&#45;&gt;OfferModule -->
<g id="edge5" class="edge">
<title>SharedModule&#45;&gt;OfferModule</title>
<path fill="none" stroke="#000000" d="M769,-122.2228C769,-142.3652 769,-172 769,-172 769,-172 512.8899,-172 512.8899,-172"/>
<polygon fill="#000000" stroke="#000000" points="512.89,-168.5001 502.8899,-172 512.8899,-175.5001 512.89,-168.5001"/>
</g>
<!-- RootModule -->
<g id="node15" class="node">
<title>RootModule</title>
<polygon fill="#8dd3c7" stroke="#000000" points="2095.2773,-190 2092.2773,-194 2071.2773,-194 2068.2773,-190 2008.7227,-190 2008.7227,-154 2095.2773,-154 2095.2773,-190"/>
<text text-anchor="middle" x="2052" y="-167.8" font-family="Times,serif" font-size="14.00" fill="#000000">RootModule</text>
</g>
<!-- SharedModule&#45;&gt;RootModule -->
<g id="edge15" class="edge">
<title>SharedModule&#45;&gt;RootModule</title>
<path fill="none" stroke="#000000" d="M818.312,-98C935.65,-98 1221.7313,-98 1221.7313,-98 1221.7313,-98 1221.7313,-185 1221.7313,-185 1221.7313,-185 1998.5301,-185 1998.5301,-185"/>
<polygon fill="#000000" stroke="#000000" points="1998.5302,-188.5001 2008.5301,-185 1998.5301,-181.5001 1998.5302,-188.5001"/>
</g>
<!-- ServiceStatusComponent  -->
<g id="node22" class="node">
<title>ServiceStatusComponent </title>
<polygon fill="#fb8072" stroke="#000000" points="1019.533,-190 858.467,-190 858.467,-154 1019.533,-154 1019.533,-190"/>
<text text-anchor="middle" x="939" y="-167.8" font-family="Times,serif" font-size="14.00" fill="#000000">ServiceStatusComponent </text>
</g>
<!-- SharedModule&#45;&gt;ServiceStatusComponent  -->
<g id="edge22" class="edge">
<title>SharedModule&#45;&gt;ServiceStatusComponent </title>
<path fill="none" stroke="#000000" stroke-dasharray="5,2" d="M793.6056,-122.2479C793.6056,-145.0179 793.6056,-181 793.6056,-181 793.6056,-181 848.2244,-181 848.2244,-181"/>
<polygon fill="#000000" stroke="#000000" points="848.2244,-184.5001 858.2244,-181 848.2244,-177.5001 848.2244,-184.5001"/>
</g>
<!-- UserModule -->
<g id="node30" class="node">
<title>UserModule</title>
<polygon fill="#8dd3c7" stroke="#000000" points="3682.9762,-190 3679.9762,-194 3658.9762,-194 3655.9762,-190 3597.0238,-190 3597.0238,-154 3682.9762,-154 3682.9762,-190"/>
<text text-anchor="middle" x="3640" y="-167.8" font-family="Times,serif" font-size="14.00" fill="#000000">UserModule</text>
</g>
<!-- SharedModule&#45;&gt;UserModule -->
<g id="edge30" class="edge">
<title>SharedModule&#45;&gt;UserModule</title>
<path fill="none" stroke="#000000" d="M744.3945,-122.1944C744.3945,-130.2782 744.3945,-138 744.3945,-138 744.3945,-138 3625.6706,-138 3625.6706,-138 3625.6706,-138 3625.6706,-143.8056 3625.6706,-143.8056"/>
<polygon fill="#000000" stroke="#000000" points="3622.1707,-143.8055 3625.6706,-153.8056 3629.1707,-143.8056 3622.1707,-143.8055"/>
</g>
<!-- AppComponent -->
<g id="node7" class="node">
<title>AppComponent</title>
<polygon fill="#ffffb3" stroke="#000000" points="2698.9399,-122 2593.0601,-122 2593.0601,-86 2698.9399,-86 2698.9399,-122"/>
<text text-anchor="middle" x="2646" y="-99.8" font-family="Times,serif" font-size="14.00" fill="#000000">AppComponent</text>
</g>
<!-- AppComponent&#45;&gt;RootModule -->
<g id="edge6" class="edge">
<title>AppComponent&#45;&gt;RootModule</title>
<path fill="none" stroke="#000000" d="M2646,-122.0109C2646,-144.4852 2646,-180 2646,-180 2646,-180 2105.6782,-180 2105.6782,-180"/>
<polygon fill="#000000" stroke="#000000" points="2105.6783,-176.5001 2095.6782,-180 2105.6782,-183.5001 2105.6783,-176.5001"/>
</g>
<!-- HomeComponent -->
<g id="node8" class="node">
<title>HomeComponent</title>
<polygon fill="#ffffb3" stroke="#000000" points="2575.5451,-122 2460.4549,-122 2460.4549,-86 2575.5451,-86 2575.5451,-122"/>
<text text-anchor="middle" x="2518" y="-99.8" font-family="Times,serif" font-size="14.00" fill="#000000">HomeComponent</text>
</g>
<!-- HomeComponent&#45;&gt;RootModule -->
<g id="edge7" class="edge">
<title>HomeComponent&#45;&gt;RootModule</title>
<path fill="none" stroke="#000000" d="M2518,-122.1686C2518,-143.498 2518,-176 2518,-176 2518,-176 2105.4217,-176 2105.4217,-176"/>
<polygon fill="#000000" stroke="#000000" points="2105.4217,-172.5001 2095.4217,-176 2105.4217,-179.5001 2105.4217,-172.5001"/>
</g>
<!-- LoginFormComponent -->
<g id="node9" class="node">
<title>LoginFormComponent</title>
<polygon fill="#ffffb3" stroke="#000000" points="2442.6094,-122 2297.3906,-122 2297.3906,-86 2442.6094,-86 2442.6094,-122"/>
<text text-anchor="middle" x="2370" y="-99.8" font-family="Times,serif" font-size="14.00" fill="#000000">LoginFormComponent</text>
</g>
<!-- LoginFormComponent&#45;&gt;RootModule -->
<g id="edge8" class="edge">
<title>LoginFormComponent&#45;&gt;RootModule</title>
<path fill="none" stroke="#000000" d="M2370,-122.2228C2370,-142.3652 2370,-172 2370,-172 2370,-172 2105.5498,-172 2105.5498,-172"/>
<polygon fill="#000000" stroke="#000000" points="2105.5498,-168.5001 2095.5498,-172 2105.5497,-175.5001 2105.5498,-168.5001"/>
</g>
<!-- NavHeaderComponent -->
<g id="node10" class="node">
<title>NavHeaderComponent</title>
<polygon fill="#ffffb3" stroke="#000000" points="2279.5646,-122 2134.4354,-122 2134.4354,-86 2279.5646,-86 2279.5646,-122"/>
<text text-anchor="middle" x="2207" y="-99.8" font-family="Times,serif" font-size="14.00" fill="#000000">NavHeaderComponent</text>
</g>
<!-- NavHeaderComponent&#45;&gt;RootModule -->
<g id="edge9" class="edge">
<title>NavHeaderComponent&#45;&gt;RootModule</title>
<path fill="none" stroke="#000000" d="M2207,-122.1061C2207,-141.3391 2207,-169 2207,-169 2207,-169 2105.5886,-169 2105.5886,-169"/>
<polygon fill="#000000" stroke="#000000" points="2105.5887,-165.5001 2095.5886,-169 2105.5886,-172.5001 2105.5887,-165.5001"/>
</g>
<!-- RegisterComponent -->
<g id="node11" class="node">
<title>RegisterComponent</title>
<polygon fill="#ffffb3" stroke="#000000" points="2115.9846,-122 1988.0154,-122 1988.0154,-86 2115.9846,-86 2115.9846,-122"/>
<text text-anchor="middle" x="2052" y="-99.8" font-family="Times,serif" font-size="14.00" fill="#000000">RegisterComponent</text>
</g>
<!-- RegisterComponent&#45;&gt;RootModule -->
<g id="edge10" class="edge">
<title>RegisterComponent&#45;&gt;RootModule</title>
<path fill="none" stroke="#000000" d="M2052,-122.2228C2052,-122.2228 2052,-143.7269 2052,-143.7269"/>
<polygon fill="#000000" stroke="#000000" points="2048.5001,-143.7269 2052,-153.7269 2055.5001,-143.727 2048.5001,-143.7269"/>
</g>
<!-- StaticSidebarComponent -->
<g id="node12" class="node">
<title>StaticSidebarComponent</title>
<polygon fill="#ffffb3" stroke="#000000" points="1969.979,-122 1814.021,-122 1814.021,-86 1969.979,-86 1969.979,-122"/>
<text text-anchor="middle" x="1892" y="-99.8" font-family="Times,serif" font-size="14.00" fill="#000000">StaticSidebarComponent</text>
</g>
<!-- StaticSidebarComponent&#45;&gt;RootModule -->
<g id="edge11" class="edge">
<title>StaticSidebarComponent&#45;&gt;RootModule</title>
<path fill="none" stroke="#000000" d="M1892,-122.027C1892,-138.3976 1892,-160 1892,-160 1892,-160 1998.7017,-160 1998.7017,-160"/>
<polygon fill="#000000" stroke="#000000" points="1998.7017,-163.5001 2008.7017,-160 1998.7017,-156.5001 1998.7017,-163.5001"/>
</g>
<!-- StockComponent -->
<g id="node13" class="node">
<title>StockComponent</title>
<polygon fill="#ffffb3" stroke="#000000" points="3030.7204,-122 2917.2796,-122 2917.2796,-86 3030.7204,-86 3030.7204,-122"/>
<text text-anchor="middle" x="2974" y="-99.8" font-family="Times,serif" font-size="14.00" fill="#000000">StockComponent</text>
</g>
<!-- StockComponent&#45;&gt;RootModule -->
<g id="edge12" class="edge">
<title>StockComponent&#45;&gt;RootModule</title>
<path fill="none" stroke="#000000" d="M2974,-122.0098C2974,-146.4207 2974,-187 2974,-187 2974,-187 2105.541,-187 2105.541,-187"/>
<polygon fill="#000000" stroke="#000000" points="2105.5411,-183.5001 2095.541,-187 2105.541,-190.5001 2105.5411,-183.5001"/>
</g>
<!-- TableUpdateTimeComponent -->
<g id="node14" class="node">
<title>TableUpdateTimeComponent</title>
<polygon fill="#ffffb3" stroke="#000000" points="2899.6797,-122 2716.3203,-122 2716.3203,-86 2899.6797,-86 2899.6797,-122"/>
<text text-anchor="middle" x="2808" y="-99.8" font-family="Times,serif" font-size="14.00" fill="#000000">TableUpdateTimeComponent</text>
</g>
<!-- TableUpdateTimeComponent&#45;&gt;RootModule -->
<g id="edge13" class="edge">
<title>TableUpdateTimeComponent&#45;&gt;RootModule</title>
<path fill="none" stroke="#000000" d="M2808,-122.3228C2808,-145.6602 2808,-183 2808,-183 2808,-183 2105.3612,-183 2105.3612,-183"/>
<polygon fill="#000000" stroke="#000000" points="2105.3612,-179.5001 2095.3612,-183 2105.3611,-186.5001 2105.3612,-179.5001"/>
</g>
<!-- AppComponent  -->
<g id="node17" class="node">
<title>AppComponent </title>
<polygon fill="#fb8072" stroke="#000000" points="2106.439,-258 1997.561,-258 1997.561,-222 2106.439,-222 2106.439,-258"/>
<text text-anchor="middle" x="2052" y="-235.8" font-family="Times,serif" font-size="14.00" fill="#000000">AppComponent </text>
</g>
<!-- RootModule&#45;&gt;AppComponent  -->
<g id="edge16" class="edge">
<title>RootModule&#45;&gt;AppComponent </title>
<path fill="none" stroke="#000000" stroke-dasharray="5,2" d="M2037.5372,-190.2228C2037.5372,-190.2228 2037.5372,-211.7269 2037.5372,-211.7269"/>
<polygon fill="#000000" stroke="#000000" points="2034.0373,-211.7269 2037.5372,-221.7269 2041.0373,-211.727 2034.0373,-211.7269"/>
</g>
<!-- RootModule&#45;&gt;AppComponent  -->
<g id="edge17" class="edge">
<title>RootModule&#45;&gt;AppComponent </title>
<path fill="none" stroke="#000000" stroke-dasharray="1,5" d="M2066.4628,-190.2228C2066.4628,-190.2228 2066.4628,-211.7269 2066.4628,-211.7269"/>
<polygon fill="#000000" stroke="#000000" points="2062.9629,-211.7269 2066.4628,-221.7269 2069.9629,-211.727 2062.9629,-211.7269"/>
</g>
<!-- RootRoutingModule -->
<g id="node16" class="node">
<title>RootRoutingModule</title>
<polygon fill="#8dd3c7" stroke="#000000" points="1789.8948,-122 1786.8948,-126 1765.8948,-126 1762.8948,-122 1658.1052,-122 1658.1052,-86 1789.8948,-86 1789.8948,-122"/>
<text text-anchor="middle" x="1724" y="-99.8" font-family="Times,serif" font-size="14.00" fill="#000000">RootRoutingModule</text>
</g>
<!-- RootRoutingModule&#45;&gt;RootModule -->
<g id="edge14" class="edge">
<title>RootRoutingModule&#45;&gt;RootModule</title>
<path fill="none" stroke="#000000" d="M1724,-122.302C1724,-140.2699 1724,-165 1724,-165 1724,-165 1998.4441,-165 1998.4441,-165"/>
<polygon fill="#000000" stroke="#000000" points="1998.4442,-168.5001 2008.4441,-165 1998.4441,-161.5001 1998.4442,-168.5001"/>
</g>
<!-- AuthService -->
<g id="node18" class="node">
<title>AuthService</title>
<ellipse fill="#fdb462" stroke="#000000" cx="1301" cy="-104" rx="59.1083" ry="18"/>
<text text-anchor="middle" x="1301" y="-99.8" font-family="Times,serif" font-size="14.00" fill="#000000">AuthService</text>
</g>
<!-- AuthService&#45;&gt;RootModule -->
<g id="edge18" class="edge">
<title>AuthService&#45;&gt;RootModule</title>
<path fill="none" stroke="#000000" d="M1301,-122.0109C1301,-144.4852 1301,-180 1301,-180 1301,-180 1998.6517,-180 1998.6517,-180"/>
<polygon fill="#000000" stroke="#000000" points="1998.6517,-183.5001 2008.6517,-180 1998.6516,-176.5001 1998.6517,-183.5001"/>
</g>
<!-- Interceptor -->
<g id="node19" class="node">
<title>Interceptor</title>
<ellipse fill="#fdb462" stroke="#000000" cx="1581" cy="-104" rx="53.2878" ry="18"/>
<text text-anchor="middle" x="1581" y="-99.8" font-family="Times,serif" font-size="14.00" fill="#000000">Interceptor</text>
</g>
<!-- Interceptor&#45;&gt;RootModule -->
<g id="edge19" class="edge">
<title>Interceptor&#45;&gt;RootModule</title>
<path fill="none" stroke="#000000" d="M1581,-122.0348C1581,-141.5762 1581,-170 1581,-170 1581,-170 1998.5337,-170 1998.5337,-170"/>
<polygon fill="#000000" stroke="#000000" points="1998.5337,-173.5001 2008.5337,-170 1998.5337,-166.5001 1998.5337,-173.5001"/>
</g>
<!-- TokenStorage -->
<g id="node20" class="node">
<title>TokenStorage</title>
<ellipse fill="#fdb462" stroke="#000000" cx="1444" cy="-104" rx="65.4111" ry="18"/>
<text text-anchor="middle" x="1444" y="-99.8" font-family="Times,serif" font-size="14.00" fill="#000000">TokenStorage</text>
</g>
<!-- TokenStorage&#45;&gt;RootModule -->
<g id="edge20" class="edge">
<title>TokenStorage&#45;&gt;RootModule</title>
<path fill="none" stroke="#000000" d="M1444,-122.2843C1444,-143.3211 1444,-175 1444,-175 1444,-175 1998.2741,-175 1998.2741,-175"/>
<polygon fill="#000000" stroke="#000000" points="1998.2742,-178.5001 2008.2741,-175 1998.2741,-171.5001 1998.2742,-178.5001"/>
</g>
<!-- ServiceStatusComponent -->
<g id="node21" class="node">
<title>ServiceStatusComponent</title>
<polygon fill="#ffffb3" stroke="#000000" points="1201.5337,-190 1044.4663,-190 1044.4663,-154 1201.5337,-154 1201.5337,-190"/>
<text text-anchor="middle" x="1123" y="-167.8" font-family="Times,serif" font-size="14.00" fill="#000000">ServiceStatusComponent</text>
</g>
<!-- ServiceStatusComponent&#45;&gt;SharedModule -->
<g id="edge21" class="edge">
<title>ServiceStatusComponent&#45;&gt;SharedModule</title>
<path fill="none" stroke="#000000" d="M1123,-153.7333C1123,-135.4448 1123,-110 1123,-110 1123,-110 828.2222,-110 828.2222,-110"/>
<polygon fill="#000000" stroke="#000000" points="828.2222,-106.5001 818.2222,-110 828.2221,-113.5001 828.2222,-106.5001"/>
</g>
<!-- ConfirmDialogComponent -->
<g id="node23" class="node">
<title>ConfirmDialogComponent</title>
<polygon fill="#ffffb3" stroke="#000000" points="4204.3738,-122 4037.6262,-122 4037.6262,-86 4204.3738,-86 4204.3738,-122"/>
<text text-anchor="middle" x="4121" y="-99.8" font-family="Times,serif" font-size="14.00" fill="#000000">ConfirmDialogComponent</text>
</g>
<!-- ConfirmDialogComponent&#45;&gt;UserModule -->
<g id="edge23" class="edge">
<title>ConfirmDialogComponent&#45;&gt;UserModule</title>
<path fill="none" stroke="#000000" d="M4121,-122.1686C4121,-143.498 4121,-176 4121,-176 4121,-176 3693.1088,-176 3693.1088,-176"/>
<polygon fill="#000000" stroke="#000000" points="3693.1089,-172.5001 3683.1088,-176 3693.1088,-179.5001 3693.1089,-172.5001"/>
</g>
<!-- MainComponent -->
<g id="node24" class="node">
<title>MainComponent</title>
<polygon fill="#ffffb3" stroke="#000000" points="4019.3823,-122 3908.6177,-122 3908.6177,-86 4019.3823,-86 4019.3823,-122"/>
<text text-anchor="middle" x="3964" y="-99.8" font-family="Times,serif" font-size="14.00" fill="#000000">MainComponent</text>
</g>
<!-- MainComponent&#45;&gt;UserModule -->
<g id="edge24" class="edge">
<title>MainComponent&#45;&gt;UserModule</title>
<path fill="none" stroke="#000000" d="M3964,-122.1061C3964,-141.3391 3964,-169 3964,-169 3964,-169 3693.0247,-169 3693.0247,-169"/>
<polygon fill="#000000" stroke="#000000" points="3693.0247,-165.5001 3683.0247,-169 3693.0247,-172.5001 3693.0247,-165.5001"/>
</g>
<!-- UserBuyOffersComponent -->
<g id="node25" class="node">
<title>UserBuyOffersComponent</title>
<polygon fill="#ffffb3" stroke="#000000" points="3890.3431,-122 3723.6569,-122 3723.6569,-86 3890.3431,-86 3890.3431,-122"/>
<text text-anchor="middle" x="3807" y="-99.8" font-family="Times,serif" font-size="14.00" fill="#000000">UserBuyOffersComponent</text>
</g>
<!-- UserBuyOffersComponent&#45;&gt;UserModule -->
<g id="edge25" class="edge">
<title>UserBuyOffersComponent&#45;&gt;UserModule</title>
<path fill="none" stroke="#000000" d="M3807,-122.0336C3807,-139.0597 3807,-162 3807,-162 3807,-162 3693.0066,-162 3693.0066,-162"/>
<polygon fill="#000000" stroke="#000000" points="3693.0067,-158.5001 3683.0066,-162 3693.0066,-165.5001 3693.0067,-158.5001"/>
</g>
<!-- UserEditComponent -->
<g id="node26" class="node">
<title>UserEditComponent</title>
<polygon fill="#ffffb3" stroke="#000000" points="3705.5926,-122 3574.4074,-122 3574.4074,-86 3705.5926,-86 3705.5926,-122"/>
<text text-anchor="middle" x="3640" y="-99.8" font-family="Times,serif" font-size="14.00" fill="#000000">UserEditComponent</text>
</g>
<!-- UserEditComponent&#45;&gt;UserModule -->
<g id="edge26" class="edge">
<title>UserEditComponent&#45;&gt;UserModule</title>
<path fill="none" stroke="#000000" d="M3654.3294,-122.2228C3654.3294,-122.2228 3654.3294,-143.7269 3654.3294,-143.7269"/>
<polygon fill="#000000" stroke="#000000" points="3650.8295,-143.7269 3654.3294,-153.7269 3657.8295,-143.727 3650.8295,-143.7269"/>
</g>
<!-- UserHistoryComponent -->
<g id="node27" class="node">
<title>UserHistoryComponent</title>
<polygon fill="#ffffb3" stroke="#000000" points="3556.752,-122 3407.248,-122 3407.248,-86 3556.752,-86 3556.752,-122"/>
<text text-anchor="middle" x="3482" y="-99.8" font-family="Times,serif" font-size="14.00" fill="#000000">UserHistoryComponent</text>
</g>
<!-- UserHistoryComponent&#45;&gt;UserModule -->
<g id="edge27" class="edge">
<title>UserHistoryComponent&#45;&gt;UserModule</title>
<path fill="none" stroke="#000000" d="M3482,-122.2819C3482,-137.9478 3482,-158 3482,-158 3482,-158 3586.8258,-158 3586.8258,-158"/>
<polygon fill="#000000" stroke="#000000" points="3586.8258,-161.5001 3596.8258,-158 3586.8258,-154.5001 3586.8258,-161.5001"/>
</g>
<!-- UserSellOffersComponent -->
<g id="node28" class="node">
<title>UserSellOffersComponent</title>
<polygon fill="#ffffb3" stroke="#000000" points="3388.785,-122 3223.215,-122 3223.215,-86 3388.785,-86 3388.785,-122"/>
<text text-anchor="middle" x="3306" y="-99.8" font-family="Times,serif" font-size="14.00" fill="#000000">UserSellOffersComponent</text>
</g>
<!-- UserSellOffersComponent&#45;&gt;UserModule -->
<g id="edge28" class="edge">
<title>UserSellOffersComponent&#45;&gt;UserModule</title>
<path fill="none" stroke="#000000" d="M3306,-122.0336C3306,-139.0597 3306,-162 3306,-162 3306,-162 3587.0191,-162 3587.0191,-162"/>
<polygon fill="#000000" stroke="#000000" points="3587.0191,-165.5001 3597.0191,-162 3587.0191,-158.5001 3587.0191,-165.5001"/>
</g>
<!-- UserSharesComponent -->
<g id="node29" class="node">
<title>UserSharesComponent</title>
<polygon fill="#ffffb3" stroke="#000000" points="4367.5758,-122 4222.4242,-122 4222.4242,-86 4367.5758,-86 4367.5758,-122"/>
<text text-anchor="middle" x="4295" y="-99.8" font-family="Times,serif" font-size="14.00" fill="#000000">UserSharesComponent</text>
</g>
<!-- UserSharesComponent&#45;&gt;UserModule -->
<g id="edge29" class="edge">
<title>UserSharesComponent&#45;&gt;UserModule</title>
<path fill="none" stroke="#000000" d="M4295,-122.3228C4295,-145.6602 4295,-183 4295,-183 4295,-183 3692.9764,-183 3692.9764,-183"/>
<polygon fill="#000000" stroke="#000000" points="3692.9764,-179.5001 3682.9764,-183 3692.9763,-186.5001 3692.9764,-179.5001"/>
</g>
<!-- MainComponent  -->
<g id="node32" class="node">
<title>MainComponent </title>
<polygon fill="#80b1d3" stroke="#000000" points="3697.3828,-258 3582.6172,-258 3582.6172,-222 3697.3828,-222 3697.3828,-258"/>
<text text-anchor="middle" x="3640" y="-235.8" font-family="Times,serif" font-size="14.00" fill="#000000">MainComponent </text>
</g>
<!-- UserModule&#45;&gt;MainComponent  -->
<g id="edge32" class="edge">
<title>UserModule&#45;&gt;MainComponent </title>
<path fill="none" stroke="#000000" stroke-dasharray="1,5" d="M3640,-190.2228C3640,-190.2228 3640,-211.7269 3640,-211.7269"/>
<polygon fill="#000000" stroke="#000000" points="3636.5001,-211.7269 3640,-221.7269 3643.5001,-211.727 3636.5001,-211.7269"/>
</g>
<!-- userRoutingModule -->
<g id="node31" class="node">
<title>userRoutingModule</title>
<polygon fill="#8dd3c7" stroke="#000000" points="3198.9874,-122 3195.9874,-126 3174.9874,-126 3171.9874,-122 3071.0126,-122 3071.0126,-86 3198.9874,-86 3198.9874,-122"/>
<text text-anchor="middle" x="3135" y="-99.8" font-family="Times,serif" font-size="14.00" fill="#000000">userRoutingModule</text>
</g>
<!-- userRoutingModule&#45;&gt;UserModule -->
<g id="edge31" class="edge">
<title>userRoutingModule&#45;&gt;UserModule</title>
<path fill="none" stroke="#000000" d="M3135,-122.302C3135,-140.2699 3135,-165 3135,-165 3135,-165 3586.944,-165 3586.944,-165"/>
<polygon fill="#000000" stroke="#000000" points="3586.944,-168.5001 3596.944,-165 3586.9439,-161.5001 3586.944,-168.5001"/>
</g>
</g>
</svg>
