<?xml version="1.0" encoding="UTF-8" standalone="no"?>
<!DOCTYPE svg PUBLIC "-//W3C//DTD SVG 1.1//EN"
 "http://www.w3.org/Graphics/SVG/1.1/DTD/svg11.dtd">
<!-- Generated by graphviz version 2.40.1 (20161225.0304)
 -->
<!-- Title: dependencies Pages: 1 -->
<svg width="1954pt" height="284pt"
 viewBox="0.00 0.00 1954.00 284.00" xmlns="http://www.w3.org/2000/svg" xmlns:xlink="http://www.w3.org/1999/xlink">
<g id="graph0" class="graph" transform="scale(1 1) rotate(0) translate(4 280)">
<title>dependencies</title>
<polygon fill="#ffffff" stroke="transparent" points="-4,4 -4,-280 1950,-280 1950,4 -4,4"/>
<text text-anchor="start" x="952.0091" y="-42.4" font-family="sans-serif" font-weight="bold" font-size="14.00" fill="#000000">Legend</text>
<polygon fill="#ffffb3" stroke="transparent" points="739,-10 739,-30 759,-30 759,-10 739,-10"/>
<text text-anchor="start" x="762.629" y="-15.4" font-family="sans-serif" font-size="14.00" fill="#000000"> &#160;Declarations</text>
<polygon fill="#8dd3c7" stroke="transparent" points="852,-10 852,-30 872,-30 872,-10 852,-10"/>
<text text-anchor="start" x="875.7251" y="-15.4" font-family="sans-serif" font-size="14.00" fill="#000000"> &#160;Module</text>
<polygon fill="#80b1d3" stroke="transparent" points="938,-10 938,-30 958,-30 958,-10 938,-10"/>
<text text-anchor="start" x="961.7812" y="-15.4" font-family="sans-serif" font-size="14.00" fill="#000000"> &#160;Bootstrap</text>
<polygon fill="#fdb462" stroke="transparent" points="1035,-10 1035,-30 1055,-30 1055,-10 1035,-10"/>
<text text-anchor="start" x="1058.6732" y="-15.4" font-family="sans-serif" font-size="14.00" fill="#000000"> &#160;Providers</text>
<polygon fill="#fb8072" stroke="transparent" points="1131,-10 1131,-30 1151,-30 1151,-10 1131,-10"/>
<text text-anchor="start" x="1154.7258" y="-15.4" font-family="sans-serif" font-size="14.00" fill="#000000"> &#160;Exports</text>
<g id="clust1" class="cluster">
<title>cluster_RootModule</title>
<polygon fill="none" stroke="#000000" stroke-dasharray="1,5" points="8,-70 8,-268 1938,-268 1938,-70 8,-70"/>
</g>
<g id="clust2" class="cluster">
<title>cluster_RootModule_declarations</title>
<polygon fill="none" stroke="#000000" points="696,-78 696,-130 1930,-130 1930,-78 696,-78"/>
</g>
<g id="clust11" class="cluster">
<title>cluster_RootModule_imports</title>
<polygon fill="none" stroke="#000000" points="432,-78 432,-130 688,-130 688,-78 432,-78"/>
</g>
<g id="clust12" class="cluster">
<title>cluster_RootModule_exports</title>
<polygon fill="none" stroke="#000000" points="900,-208 900,-260 1024,-260 1024,-208 900,-208"/>
</g>
<g id="clust14" class="cluster">
<title>cluster_RootModule_providers</title>
<polygon fill="none" stroke="#000000" points="16,-78 16,-130 424,-130 424,-78 16,-78"/>
</g>
<!-- AppComponent -->
<g id="node1" class="node">
<title>AppComponent</title>
<polygon fill="#ffffb3" stroke="#000000" points="1921.9399,-122 1816.0601,-122 1816.0601,-86 1921.9399,-86 1921.9399,-122"/>
<text text-anchor="middle" x="1869" y="-99.8" font-family="Times,serif" font-size="14.00" fill="#000000">AppComponent</text>
</g>
<!-- RootModule -->
<g id="node9" class="node">
<title>RootModule</title>
<polygon fill="#8dd3c7" stroke="#000000" points="1005.2773,-187 1002.2773,-191 981.2773,-191 978.2773,-187 918.7227,-187 918.7227,-151 1005.2773,-151 1005.2773,-187"/>
<text text-anchor="middle" x="962" y="-164.8" font-family="Times,serif" font-size="14.00" fill="#000000">RootModule</text>
</g>
<!-- AppComponent&#45;&gt;RootModule -->
<g id="edge1" class="edge">
<title>AppComponent&#45;&gt;RootModule</title>
<path fill="none" stroke="#000000" d="M1869,-122.0908C1869,-145.1328 1869,-182 1869,-182 1869,-182 1015.4409,-182 1015.4409,-182"/>
<polygon fill="#000000" stroke="#000000" points="1015.441,-178.5001 1005.4409,-182 1015.4409,-185.5001 1015.441,-178.5001"/>
</g>
<!-- HomeComponent -->
<g id="node2" class="node">
<title>HomeComponent</title>
<polygon fill="#ffffb3" stroke="#000000" points="1798.5451,-122 1683.4549,-122 1683.4549,-86 1798.5451,-86 1798.5451,-122"/>
<text text-anchor="middle" x="1741" y="-99.8" font-family="Times,serif" font-size="14.00" fill="#000000">HomeComponent</text>
</g>
<!-- HomeComponent&#45;&gt;RootModule -->
<g id="edge2" class="edge">
<title>HomeComponent&#45;&gt;RootModule</title>
<path fill="none" stroke="#000000" d="M1741,-122.0449C1741,-143.6623 1741,-177 1741,-177 1741,-177 1015.5516,-177 1015.5516,-177"/>
<polygon fill="#000000" stroke="#000000" points="1015.5517,-173.5001 1005.5516,-177 1015.5516,-180.5001 1015.5517,-173.5001"/>
</g>
<!-- LoginFormComponent -->
<g id="node3" class="node">
<title>LoginFormComponent</title>
<polygon fill="#ffffb3" stroke="#000000" points="1665.6094,-122 1520.3906,-122 1520.3906,-86 1665.6094,-86 1665.6094,-122"/>
<text text-anchor="middle" x="1593" y="-99.8" font-family="Times,serif" font-size="14.00" fill="#000000">LoginFormComponent</text>
</g>
<!-- LoginFormComponent&#45;&gt;RootModule -->
<g id="edge3" class="edge">
<title>LoginFormComponent&#45;&gt;RootModule</title>
<path fill="none" stroke="#000000" d="M1593,-122.2228C1593,-142.3652 1593,-172 1593,-172 1593,-172 1015.3712,-172 1015.3712,-172"/>
<polygon fill="#000000" stroke="#000000" points="1015.3712,-168.5001 1005.3712,-172 1015.3712,-175.5001 1015.3712,-168.5001"/>
</g>
<!-- NavHeaderComponent -->
<g id="node4" class="node">
<title>NavHeaderComponent</title>
<polygon fill="#ffffb3" stroke="#000000" points="1502.5646,-122 1357.4354,-122 1357.4354,-86 1502.5646,-86 1502.5646,-122"/>
<text text-anchor="middle" x="1430" y="-99.8" font-family="Times,serif" font-size="14.00" fill="#000000">NavHeaderComponent</text>
</g>
<!-- NavHeaderComponent&#45;&gt;RootModule -->
<g id="edge4" class="edge">
<title>NavHeaderComponent&#45;&gt;RootModule</title>
<path fill="none" stroke="#000000" d="M1430,-122.2222C1430,-140.8285 1430,-167 1430,-167 1430,-167 1015.608,-167 1015.608,-167"/>
<polygon fill="#000000" stroke="#000000" points="1015.6081,-163.5001 1005.608,-167 1015.608,-170.5001 1015.6081,-163.5001"/>
</g>
<!-- RegisterComponent -->
<g id="node5" class="node">
<title>RegisterComponent</title>
<polygon fill="#ffffb3" stroke="#000000" points="1338.9846,-122 1211.0154,-122 1211.0154,-86 1338.9846,-86 1338.9846,-122"/>
<text text-anchor="middle" x="1275" y="-99.8" font-family="Times,serif" font-size="14.00" fill="#000000">RegisterComponent</text>
</g>
<!-- RegisterComponent&#45;&gt;RootModule -->
<g id="edge5" class="edge">
<title>RegisterComponent&#45;&gt;RootModule</title>
<path fill="none" stroke="#000000" d="M1275,-122.0336C1275,-139.0597 1275,-162 1275,-162 1275,-162 1015.5213,-162 1015.5213,-162"/>
<polygon fill="#000000" stroke="#000000" points="1015.5213,-158.5001 1005.5213,-162 1015.5213,-165.5001 1015.5213,-158.5001"/>
</g>
<!-- StaticSidebarComponent -->
<g id="node6" class="node">
<title>StaticSidebarComponent</title>
<polygon fill="#ffffb3" stroke="#000000" points="1192.979,-122 1037.021,-122 1037.021,-86 1192.979,-86 1192.979,-122"/>
<text text-anchor="middle" x="1115" y="-99.8" font-family="Times,serif" font-size="14.00" fill="#000000">StaticSidebarComponent</text>
</g>
<!-- StaticSidebarComponent&#45;&gt;RootModule -->
<g id="edge6" class="edge">
<title>StaticSidebarComponent&#45;&gt;RootModule</title>
<path fill="none" stroke="#000000" d="M1115,-122.2396C1115,-137.5706 1115,-157 1115,-157 1115,-157 1015.4344,-157 1015.4344,-157"/>
<polygon fill="#000000" stroke="#000000" points="1015.4344,-153.5001 1005.4344,-157 1015.4344,-160.5001 1015.4344,-153.5001"/>
</g>
<!-- StockComponent -->
<g id="node7" class="node">
<title>StockComponent</title>
<polygon fill="#ffffb3" stroke="#000000" points="1018.7204,-122 905.2796,-122 905.2796,-86 1018.7204,-86 1018.7204,-122"/>
<text text-anchor="middle" x="962" y="-99.8" font-family="Times,serif" font-size="14.00" fill="#000000">StockComponent</text>
</g>
<!-- StockComponent&#45;&gt;RootModule -->
<g id="edge7" class="edge">
<title>StockComponent&#45;&gt;RootModule</title>
<path fill="none" stroke="#000000" d="M962,-122.1061C962,-122.1061 962,-140.991 962,-140.991"/>
<polygon fill="#000000" stroke="#000000" points="958.5001,-140.9909 962,-150.991 965.5001,-140.991 958.5001,-140.9909"/>
</g>
<!-- TableUpdateTimeComponent -->
<g id="node8" class="node">
<title>TableUpdateTimeComponent</title>
<polygon fill="#ffffb3" stroke="#000000" points="887.6797,-122 704.3203,-122 704.3203,-86 887.6797,-86 887.6797,-122"/>
<text text-anchor="middle" x="796" y="-99.8" font-family="Times,serif" font-size="14.00" fill="#000000">TableUpdateTimeComponent</text>
</g>
<!-- TableUpdateTimeComponent&#45;&gt;RootModule -->
<g id="edge8" class="edge">
<title>TableUpdateTimeComponent&#45;&gt;RootModule</title>
<path fill="none" stroke="#000000" d="M796,-122.2396C796,-137.5706 796,-157 796,-157 796,-157 908.3855,-157 908.3855,-157"/>
<polygon fill="#000000" stroke="#000000" points="908.3855,-160.5001 918.3855,-157 908.3854,-153.5001 908.3855,-160.5001"/>
</g>
<!-- AppComponent  -->
<g id="node12" class="node">
<title>AppComponent </title>
<polygon fill="#fb8072" stroke="#000000" points="1016.439,-252 907.561,-252 907.561,-216 1016.439,-216 1016.439,-252"/>
<text text-anchor="middle" x="962" y="-229.8" font-family="Times,serif" font-size="14.00" fill="#000000">AppComponent </text>
</g>
<!-- RootModule&#45;&gt;AppComponent  -->
<g id="edge11" class="edge">
<title>RootModule&#45;&gt;AppComponent </title>
<path fill="none" stroke="#000000" stroke-dasharray="5,2" d="M947.5372,-187.1061C947.5372,-187.1061 947.5372,-205.991 947.5372,-205.991"/>
<polygon fill="#000000" stroke="#000000" points="944.0373,-205.9909 947.5372,-215.991 951.0373,-205.991 944.0373,-205.9909"/>
</g>
<!-- RootModule&#45;&gt;AppComponent  -->
<g id="edge12" class="edge">
<title>RootModule&#45;&gt;AppComponent </title>
<path fill="none" stroke="#000000" stroke-dasharray="1,5" d="M976.4628,-187.1061C976.4628,-187.1061 976.4628,-205.991 976.4628,-205.991"/>
<polygon fill="#000000" stroke="#000000" points="972.9629,-205.9909 976.4628,-215.991 979.9629,-205.991 972.9629,-205.9909"/>
</g>
<!-- OfferModule -->
<g id="node10" class="node">
<title>OfferModule</title>
<polygon fill="#8dd3c7" stroke="#000000" points="679.8529,-122 676.8529,-126 655.8529,-126 652.8529,-122 590.1471,-122 590.1471,-86 679.8529,-86 679.8529,-122"/>
<text text-anchor="middle" x="635" y="-99.8" font-family="Times,serif" font-size="14.00" fill="#000000">OfferModule</text>
</g>
<!-- OfferModule&#45;&gt;RootModule -->
<g id="edge9" class="edge">
<title>OfferModule&#45;&gt;RootModule</title>
<path fill="none" stroke="#000000" d="M635,-122.0336C635,-139.0597 635,-162 635,-162 635,-162 908.5769,-162 908.5769,-162"/>
<polygon fill="#000000" stroke="#000000" points="908.577,-165.5001 918.5769,-162 908.5769,-158.5001 908.577,-165.5001"/>
</g>
<!-- RootRoutingModule -->
<g id="node11" class="node">
<title>RootRoutingModule</title>
<polygon fill="#8dd3c7" stroke="#000000" points="571.8948,-122 568.8948,-126 547.8948,-126 544.8948,-122 440.1052,-122 440.1052,-86 571.8948,-86 571.8948,-122"/>
<text text-anchor="middle" x="506" y="-99.8" font-family="Times,serif" font-size="14.00" fill="#000000">RootRoutingModule</text>
</g>
<!-- RootRoutingModule&#45;&gt;RootModule -->
<g id="edge10" class="edge">
<title>RootRoutingModule&#45;&gt;RootModule</title>
<path fill="none" stroke="#000000" d="M506,-122.2222C506,-140.8285 506,-167 506,-167 506,-167 908.6895,-167 908.6895,-167"/>
<polygon fill="#000000" stroke="#000000" points="908.6896,-170.5001 918.6895,-167 908.6895,-163.5001 908.6896,-170.5001"/>
</g>
<!-- AuthService -->
<g id="node13" class="node">
<title>AuthService</title>
<ellipse fill="#fdb462" stroke="#000000" cx="357" cy="-104" rx="59.1083" ry="18"/>
<text text-anchor="middle" x="357" y="-99.8" font-family="Times,serif" font-size="14.00" fill="#000000">AuthService</text>
</g>
<!-- AuthService&#45;&gt;RootModule -->
<g id="edge13" class="edge">
<title>AuthService&#45;&gt;RootModule</title>
<path fill="none" stroke="#000000" d="M357,-122.2228C357,-142.3652 357,-172 357,-172 357,-172 908.4899,-172 908.4899,-172"/>
<polygon fill="#000000" stroke="#000000" points="908.4899,-175.5001 918.4899,-172 908.4899,-168.5001 908.4899,-175.5001"/>
</g>
<!-- Interceptor -->
<g id="node14" class="node">
<title>Interceptor</title>
<ellipse fill="#fdb462" stroke="#000000" cx="226" cy="-104" rx="53.2878" ry="18"/>
<text text-anchor="middle" x="226" y="-99.8" font-family="Times,serif" font-size="14.00" fill="#000000">Interceptor</text>
</g>
<!-- Interceptor&#45;&gt;RootModule -->
<g id="edge14" class="edge">
<title>Interceptor&#45;&gt;RootModule</title>
<path fill="none" stroke="#000000" d="M226,-122.0449C226,-143.6623 226,-177 226,-177 226,-177 908.7076,-177 908.7076,-177"/>
<polygon fill="#000000" stroke="#000000" points="908.7076,-180.5001 918.7076,-177 908.7076,-173.5001 908.7076,-180.5001"/>
</g>
<!-- TokenStorage -->
<g id="node15" class="node">
<title>TokenStorage</title>
<ellipse fill="#fdb462" stroke="#000000" cx="89" cy="-104" rx="65.4111" ry="18"/>
<text text-anchor="middle" x="89" y="-99.8" font-family="Times,serif" font-size="14.00" fill="#000000">TokenStorage</text>
</g>
<!-- TokenStorage&#45;&gt;RootModule -->
<g id="edge15" class="edge">
<title>TokenStorage&#45;&gt;RootModule</title>
<path fill="none" stroke="#000000" d="M89,-122.0908C89,-145.1328 89,-182 89,-182 89,-182 908.7078,-182 908.7078,-182"/>
<polygon fill="#000000" stroke="#000000" points="908.7078,-185.5001 918.7078,-182 908.7078,-178.5001 908.7078,-185.5001"/>
</g>
</g>
</svg>
