<?xml version="1.0" encoding="UTF-8" standalone="no"?>
<!DOCTYPE svg PUBLIC "-//W3C//DTD SVG 1.1//EN"
 "http://www.w3.org/Graphics/SVG/1.1/DTD/svg11.dtd">
<!-- Generated by graphviz version 2.40.1 (20161225.0304)
 -->
<!-- Title: dependencies Pages: 1 -->
<svg width="1846pt" height="284pt"
 viewBox="0.00 0.00 1846.00 284.00" xmlns="http://www.w3.org/2000/svg" xmlns:xlink="http://www.w3.org/1999/xlink">
<g id="graph0" class="graph" transform="scale(1 1) rotate(0) translate(4 280)">
<title>dependencies</title>
<polygon fill="#ffffff" stroke="transparent" points="-4,4 -4,-280 1842,-280 1842,4 -4,4"/>
<text text-anchor="start" x="898.0091" y="-42.4" font-family="sans-serif" font-weight="bold" font-size="14.00" fill="#000000">Legend</text>
<polygon fill="#ffffb3" stroke="transparent" points="685,-10 685,-30 705,-30 705,-10 685,-10"/>
<text text-anchor="start" x="708.629" y="-15.4" font-family="sans-serif" font-size="14.00" fill="#000000"> &#160;Declarations</text>
<polygon fill="#8dd3c7" stroke="transparent" points="798,-10 798,-30 818,-30 818,-10 798,-10"/>
<text text-anchor="start" x="821.7251" y="-15.4" font-family="sans-serif" font-size="14.00" fill="#000000"> &#160;Module</text>
<polygon fill="#80b1d3" stroke="transparent" points="884,-10 884,-30 904,-30 904,-10 884,-10"/>
<text text-anchor="start" x="907.7812" y="-15.4" font-family="sans-serif" font-size="14.00" fill="#000000"> &#160;Bootstrap</text>
<polygon fill="#fdb462" stroke="transparent" points="981,-10 981,-30 1001,-30 1001,-10 981,-10"/>
<text text-anchor="start" x="1004.6732" y="-15.4" font-family="sans-serif" font-size="14.00" fill="#000000"> &#160;Providers</text>
<polygon fill="#fb8072" stroke="transparent" points="1077,-10 1077,-30 1097,-30 1097,-10 1077,-10"/>
<text text-anchor="start" x="1100.7258" y="-15.4" font-family="sans-serif" font-size="14.00" fill="#000000"> &#160;Exports</text>
<g id="clust1" class="cluster">
<title>cluster_RootModule</title>
<polygon fill="none" stroke="#000000" stroke-dasharray="1,5" points="8,-70 8,-268 1830,-268 1830,-70 8,-70"/>
</g>
<g id="clust2" class="cluster">
<title>cluster_RootModule_declarations</title>
<polygon fill="none" stroke="#000000" points="588,-78 588,-130 1822,-130 1822,-78 588,-78"/>
</g>
<g id="clust11" class="cluster">
<title>cluster_RootModule_imports</title>
<polygon fill="none" stroke="#000000" points="432,-78 432,-130 580,-130 580,-78 432,-78"/>
</g>
<g id="clust12" class="cluster">
<title>cluster_RootModule_exports</title>
<polygon fill="none" stroke="#000000" points="868,-208 868,-260 992,-260 992,-208 868,-208"/>
</g>
<g id="clust14" class="cluster">
<title>cluster_RootModule_providers</title>
<polygon fill="none" stroke="#000000" points="16,-78 16,-130 424,-130 424,-78 16,-78"/>
</g>
<!-- AppComponent -->
<g id="node1" class="node">
<title>AppComponent</title>
<polygon fill="#ffffb3" stroke="#000000" points="1813.9399,-122 1708.0601,-122 1708.0601,-86 1813.9399,-86 1813.9399,-122"/>
<text text-anchor="middle" x="1761" y="-99.8" font-family="Times,serif" font-size="14.00" fill="#000000">AppComponent</text>
</g>
<!-- RootModule -->
<g id="node9" class="node">
<title>RootModule</title>
<polygon fill="#8dd3c7" stroke="#000000" points="973.2773,-187 970.2773,-191 949.2773,-191 946.2773,-187 886.7227,-187 886.7227,-151 973.2773,-151 973.2773,-187"/>
<text text-anchor="middle" x="930" y="-164.8" font-family="Times,serif" font-size="14.00" fill="#000000">RootModule</text>
</g>
<!-- AppComponent&#45;&gt;RootModule -->
<g id="edge1" class="edge">
<title>AppComponent&#45;&gt;RootModule</title>
<path fill="none" stroke="#000000" d="M1761,-122.2479C1761,-145.0179 1761,-181 1761,-181 1761,-181 983.5081,-181 983.5081,-181"/>
<polygon fill="#000000" stroke="#000000" points="983.5082,-177.5001 973.5081,-181 983.5081,-184.5001 983.5082,-177.5001"/>
</g>
<!-- HomeComponent -->
<g id="node2" class="node">
<title>HomeComponent</title>
<polygon fill="#ffffb3" stroke="#000000" points="1690.5451,-122 1575.4549,-122 1575.4549,-86 1690.5451,-86 1690.5451,-122"/>
<text text-anchor="middle" x="1633" y="-99.8" font-family="Times,serif" font-size="14.00" fill="#000000">HomeComponent</text>
</g>
<!-- HomeComponent&#45;&gt;RootModule -->
<g id="edge2" class="edge">
<title>HomeComponent&#45;&gt;RootModule</title>
<path fill="none" stroke="#000000" d="M1633,-122.2843C1633,-143.3211 1633,-175 1633,-175 1633,-175 983.4453,-175 983.4453,-175"/>
<polygon fill="#000000" stroke="#000000" points="983.4453,-171.5001 973.4453,-175 983.4452,-178.5001 983.4453,-171.5001"/>
</g>
<!-- LoginFormComponent -->
<g id="node3" class="node">
<title>LoginFormComponent</title>
<polygon fill="#ffffb3" stroke="#000000" points="1557.6094,-122 1412.3906,-122 1412.3906,-86 1557.6094,-86 1557.6094,-122"/>
<text text-anchor="middle" x="1485" y="-99.8" font-family="Times,serif" font-size="14.00" fill="#000000">LoginFormComponent</text>
</g>
<!-- LoginFormComponent&#45;&gt;RootModule -->
<g id="edge3" class="edge">
<title>LoginFormComponent&#45;&gt;RootModule</title>
<path fill="none" stroke="#000000" d="M1485,-122.1061C1485,-141.3391 1485,-169 1485,-169 1485,-169 983.5499,-169 983.5499,-169"/>
<polygon fill="#000000" stroke="#000000" points="983.55,-165.5001 973.5499,-169 983.5499,-172.5001 983.55,-165.5001"/>
</g>
<!-- NavHeaderComponent -->
<g id="node4" class="node">
<title>NavHeaderComponent</title>
<polygon fill="#ffffb3" stroke="#000000" points="1394.5646,-122 1249.4354,-122 1249.4354,-86 1394.5646,-86 1394.5646,-122"/>
<text text-anchor="middle" x="1322" y="-99.8" font-family="Times,serif" font-size="14.00" fill="#000000">NavHeaderComponent</text>
</g>
<!-- NavHeaderComponent&#45;&gt;RootModule -->
<g id="edge4" class="edge">
<title>NavHeaderComponent&#45;&gt;RootModule</title>
<path fill="none" stroke="#000000" d="M1322,-122.0225C1322,-139.3734 1322,-163 1322,-163 1322,-163 983.4486,-163 983.4486,-163"/>
<polygon fill="#000000" stroke="#000000" points="983.4486,-159.5001 973.4486,-163 983.4486,-166.5001 983.4486,-159.5001"/>
</g>
<!-- RegisterComponent -->
<g id="node5" class="node">
<title>RegisterComponent</title>
<polygon fill="#ffffb3" stroke="#000000" points="1230.9846,-122 1103.0154,-122 1103.0154,-86 1230.9846,-86 1230.9846,-122"/>
<text text-anchor="middle" x="1167" y="-99.8" font-family="Times,serif" font-size="14.00" fill="#000000">RegisterComponent</text>
</g>
<!-- RegisterComponent&#45;&gt;RootModule -->
<g id="edge5" class="edge">
<title>RegisterComponent&#45;&gt;RootModule</title>
<path fill="none" stroke="#000000" d="M1167,-122.2396C1167,-137.5706 1167,-157 1167,-157 1167,-157 983.4695,-157 983.4695,-157"/>
<polygon fill="#000000" stroke="#000000" points="983.4695,-153.5001 973.4695,-157 983.4694,-160.5001 983.4695,-153.5001"/>
</g>
<!-- StaticSidebarComponent -->
<g id="node6" class="node">
<title>StaticSidebarComponent</title>
<polygon fill="#ffffb3" stroke="#000000" points="1084.979,-122 929.021,-122 929.021,-86 1084.979,-86 1084.979,-122"/>
<text text-anchor="middle" x="1007" y="-99.8" font-family="Times,serif" font-size="14.00" fill="#000000">StaticSidebarComponent</text>
</g>
<!-- StaticSidebarComponent&#45;&gt;RootModule -->
<g id="edge6" class="edge">
<title>StaticSidebarComponent&#45;&gt;RootModule</title>
<path fill="none" stroke="#000000" d="M951.1995,-122.1061C951.1995,-122.1061 951.1995,-140.991 951.1995,-140.991"/>
<polygon fill="#000000" stroke="#000000" points="947.6996,-140.9909 951.1995,-150.991 954.6996,-140.991 947.6996,-140.9909"/>
</g>
<!-- StockComponent -->
<g id="node7" class="node">
<title>StockComponent</title>
<polygon fill="#ffffb3" stroke="#000000" points="910.7204,-122 797.2796,-122 797.2796,-86 910.7204,-86 910.7204,-122"/>
<text text-anchor="middle" x="854" y="-99.8" font-family="Times,serif" font-size="14.00" fill="#000000">StockComponent</text>
</g>
<!-- StockComponent&#45;&gt;RootModule -->
<g id="edge7" class="edge">
<title>StockComponent&#45;&gt;RootModule</title>
<path fill="none" stroke="#000000" d="M898.6108,-122.1061C898.6108,-122.1061 898.6108,-140.991 898.6108,-140.991"/>
<polygon fill="#000000" stroke="#000000" points="895.1109,-140.9909 898.6108,-150.991 902.1109,-140.991 895.1109,-140.9909"/>
</g>
<!-- TableUpdateTimeComponent -->
<g id="node8" class="node">
<title>TableUpdateTimeComponent</title>
<polygon fill="#ffffb3" stroke="#000000" points="779.6797,-122 596.3203,-122 596.3203,-86 779.6797,-86 779.6797,-122"/>
<text text-anchor="middle" x="688" y="-99.8" font-family="Times,serif" font-size="14.00" fill="#000000">TableUpdateTimeComponent</text>
</g>
<!-- TableUpdateTimeComponent&#45;&gt;RootModule -->
<g id="edge8" class="edge">
<title>TableUpdateTimeComponent&#45;&gt;RootModule</title>
<path fill="none" stroke="#000000" d="M688,-122.2396C688,-137.5706 688,-157 688,-157 688,-157 876.4558,-157 876.4558,-157"/>
<polygon fill="#000000" stroke="#000000" points="876.4558,-160.5001 886.4558,-157 876.4557,-153.5001 876.4558,-160.5001"/>
</g>
<!-- AppComponent  -->
<g id="node11" class="node">
<title>AppComponent </title>
<polygon fill="#fb8072" stroke="#000000" points="984.439,-252 875.561,-252 875.561,-216 984.439,-216 984.439,-252"/>
<text text-anchor="middle" x="930" y="-229.8" font-family="Times,serif" font-size="14.00" fill="#000000">AppComponent </text>
</g>
<!-- RootModule&#45;&gt;AppComponent  -->
<g id="edge10" class="edge">
<title>RootModule&#45;&gt;AppComponent </title>
<path fill="none" stroke="#000000" stroke-dasharray="5,2" d="M915.5372,-187.1061C915.5372,-187.1061 915.5372,-205.991 915.5372,-205.991"/>
<polygon fill="#000000" stroke="#000000" points="912.0373,-205.9909 915.5372,-215.991 919.0373,-205.991 912.0373,-205.9909"/>
</g>
<!-- RootModule&#45;&gt;AppComponent  -->
<g id="edge11" class="edge">
<title>RootModule&#45;&gt;AppComponent </title>
<path fill="none" stroke="#000000" stroke-dasharray="1,5" d="M944.4628,-187.1061C944.4628,-187.1061 944.4628,-205.991 944.4628,-205.991"/>
<polygon fill="#000000" stroke="#000000" points="940.9629,-205.9909 944.4628,-215.991 947.9629,-205.991 940.9629,-205.9909"/>
</g>
<!-- RootRoutingModule -->
<g id="node10" class="node">
<title>RootRoutingModule</title>
<polygon fill="#8dd3c7" stroke="#000000" points="571.8948,-122 568.8948,-126 547.8948,-126 544.8948,-122 440.1052,-122 440.1052,-86 571.8948,-86 571.8948,-122"/>
<text text-anchor="middle" x="506" y="-99.8" font-family="Times,serif" font-size="14.00" fill="#000000">RootRoutingModule</text>
</g>
<!-- RootRoutingModule&#45;&gt;RootModule -->
<g id="edge9" class="edge">
<title>RootRoutingModule&#45;&gt;RootModule</title>
<path fill="none" stroke="#000000" d="M506,-122.0225C506,-139.3734 506,-163 506,-163 506,-163 876.6171,-163 876.6171,-163"/>
<polygon fill="#000000" stroke="#000000" points="876.6172,-166.5001 886.6171,-163 876.6171,-159.5001 876.6172,-166.5001"/>
</g>
<!-- AuthService -->
<g id="node12" class="node">
<title>AuthService</title>
<ellipse fill="#fdb462" stroke="#000000" cx="357" cy="-104" rx="59.1083" ry="18"/>
<text text-anchor="middle" x="357" y="-99.8" font-family="Times,serif" font-size="14.00" fill="#000000">AuthService</text>
</g>
<!-- AuthService&#45;&gt;RootModule -->
<g id="edge12" class="edge">
<title>AuthService&#45;&gt;RootModule</title>
<path fill="none" stroke="#000000" d="M357,-122.1061C357,-141.3391 357,-169 357,-169 357,-169 876.4616,-169 876.4616,-169"/>
<polygon fill="#000000" stroke="#000000" points="876.4616,-172.5001 886.4616,-169 876.4615,-165.5001 876.4616,-172.5001"/>
</g>
<!-- Interceptor -->
<g id="node13" class="node">
<title>Interceptor</title>
<ellipse fill="#fdb462" stroke="#000000" cx="226" cy="-104" rx="53.2878" ry="18"/>
<text text-anchor="middle" x="226" y="-99.8" font-family="Times,serif" font-size="14.00" fill="#000000">Interceptor</text>
</g>
<!-- Interceptor&#45;&gt;RootModule -->
<g id="edge13" class="edge">
<title>Interceptor&#45;&gt;RootModule</title>
<path fill="none" stroke="#000000" d="M226,-122.2843C226,-143.3211 226,-175 226,-175 226,-175 876.4929,-175 876.4929,-175"/>
<polygon fill="#000000" stroke="#000000" points="876.493,-178.5001 886.4929,-175 876.4929,-171.5001 876.493,-178.5001"/>
</g>
<!-- TokenStorage -->
<g id="node14" class="node">
<title>TokenStorage</title>
<ellipse fill="#fdb462" stroke="#000000" cx="89" cy="-104" rx="65.4111" ry="18"/>
<text text-anchor="middle" x="89" y="-99.8" font-family="Times,serif" font-size="14.00" fill="#000000">TokenStorage</text>
</g>
<!-- TokenStorage&#45;&gt;RootModule -->
<g id="edge14" class="edge">
<title>TokenStorage&#45;&gt;RootModule</title>
<path fill="none" stroke="#000000" d="M89,-122.2479C89,-145.0179 89,-181 89,-181 89,-181 876.5551,-181 876.5551,-181"/>
<polygon fill="#000000" stroke="#000000" points="876.5552,-184.5001 886.5551,-181 876.5551,-177.5001 876.5552,-184.5001"/>
</g>
</g>
</svg>
