<?xml version="1.0" encoding="UTF-8" standalone="no"?>
<!DOCTYPE svg PUBLIC "-//W3C//DTD SVG 1.1//EN"
 "http://www.w3.org/Graphics/SVG/1.1/DTD/svg11.dtd">
<!-- Generated by graphviz version 2.40.1 (20161225.0304)
 -->
<!-- Title: dependencies Pages: 1 -->
<svg width="1962pt" height="284pt"
 viewBox="0.00 0.00 1962.00 284.00" xmlns="http://www.w3.org/2000/svg" xmlns:xlink="http://www.w3.org/1999/xlink">
<g id="graph0" class="graph" transform="scale(1 1) rotate(0) translate(4 280)">
<title>dependencies</title>
<polygon fill="#ffffff" stroke="transparent" points="-4,4 -4,-280 1958,-280 1958,4 -4,4"/>
<text text-anchor="start" x="956.0091" y="-42.4" font-family="sans-serif" font-weight="bold" font-size="14.00" fill="#000000">Legend</text>
<polygon fill="#ffffb3" stroke="transparent" points="743,-10 743,-30 763,-30 763,-10 743,-10"/>
<text text-anchor="start" x="766.629" y="-15.4" font-family="sans-serif" font-size="14.00" fill="#000000"> &#160;Declarations</text>
<polygon fill="#8dd3c7" stroke="transparent" points="856,-10 856,-30 876,-30 876,-10 856,-10"/>
<text text-anchor="start" x="879.7251" y="-15.4" font-family="sans-serif" font-size="14.00" fill="#000000"> &#160;Module</text>
<polygon fill="#80b1d3" stroke="transparent" points="942,-10 942,-30 962,-30 962,-10 942,-10"/>
<text text-anchor="start" x="965.7812" y="-15.4" font-family="sans-serif" font-size="14.00" fill="#000000"> &#160;Bootstrap</text>
<polygon fill="#fdb462" stroke="transparent" points="1039,-10 1039,-30 1059,-30 1059,-10 1039,-10"/>
<text text-anchor="start" x="1062.6732" y="-15.4" font-family="sans-serif" font-size="14.00" fill="#000000"> &#160;Providers</text>
<polygon fill="#fb8072" stroke="transparent" points="1135,-10 1135,-30 1155,-30 1155,-10 1135,-10"/>
<text text-anchor="start" x="1158.7258" y="-15.4" font-family="sans-serif" font-size="14.00" fill="#000000"> &#160;Exports</text>
<g id="clust1" class="cluster">
<title>cluster_RootModule</title>
<polygon fill="none" stroke="#000000" stroke-dasharray="1,5" points="8,-70 8,-268 1946,-268 1946,-70 8,-70"/>
</g>
<g id="clust2" class="cluster">
<title>cluster_RootModule_declarations</title>
<polygon fill="none" stroke="#000000" points="704,-78 704,-130 1938,-130 1938,-78 704,-78"/>
</g>
<g id="clust11" class="cluster">
<title>cluster_RootModule_imports</title>
<polygon fill="none" stroke="#000000" points="432,-78 432,-130 696,-130 696,-78 432,-78"/>
</g>
<g id="clust12" class="cluster">
<title>cluster_RootModule_exports</title>
<polygon fill="none" stroke="#000000" points="908,-208 908,-260 1032,-260 1032,-208 908,-208"/>
</g>
<g id="clust14" class="cluster">
<title>cluster_RootModule_providers</title>
<polygon fill="none" stroke="#000000" points="16,-78 16,-130 424,-130 424,-78 16,-78"/>
</g>
<!-- AppComponent -->
<g id="node1" class="node">
<title>AppComponent</title>
<polygon fill="#ffffb3" stroke="#000000" points="1929.9399,-122 1824.0601,-122 1824.0601,-86 1929.9399,-86 1929.9399,-122"/>
<text text-anchor="middle" x="1877" y="-99.8" font-family="Times,serif" font-size="14.00" fill="#000000">AppComponent</text>
</g>
<!-- RootModule -->
<g id="node9" class="node">
<title>RootModule</title>
<polygon fill="#8dd3c7" stroke="#000000" points="1013.2773,-187 1010.2773,-191 989.2773,-191 986.2773,-187 926.7227,-187 926.7227,-151 1013.2773,-151 1013.2773,-187"/>
<text text-anchor="middle" x="970" y="-164.8" font-family="Times,serif" font-size="14.00" fill="#000000">RootModule</text>
</g>
<!-- AppComponent&#45;&gt;RootModule -->
<g id="edge1" class="edge">
<title>AppComponent&#45;&gt;RootModule</title>
<path fill="none" stroke="#000000" d="M1877,-122.0908C1877,-145.1328 1877,-182 1877,-182 1877,-182 1023.4409,-182 1023.4409,-182"/>
<polygon fill="#000000" stroke="#000000" points="1023.441,-178.5001 1013.4409,-182 1023.4409,-185.5001 1023.441,-178.5001"/>
</g>
<!-- HomeComponent -->
<g id="node2" class="node">
<title>HomeComponent</title>
<polygon fill="#ffffb3" stroke="#000000" points="1806.5451,-122 1691.4549,-122 1691.4549,-86 1806.5451,-86 1806.5451,-122"/>
<text text-anchor="middle" x="1749" y="-99.8" font-family="Times,serif" font-size="14.00" fill="#000000">HomeComponent</text>
</g>
<!-- HomeComponent&#45;&gt;RootModule -->
<g id="edge2" class="edge">
<title>HomeComponent&#45;&gt;RootModule</title>
<path fill="none" stroke="#000000" d="M1749,-122.0449C1749,-143.6623 1749,-177 1749,-177 1749,-177 1023.5516,-177 1023.5516,-177"/>
<polygon fill="#000000" stroke="#000000" points="1023.5517,-173.5001 1013.5516,-177 1023.5516,-180.5001 1023.5517,-173.5001"/>
</g>
<!-- LoginFormComponent -->
<g id="node3" class="node">
<title>LoginFormComponent</title>
<polygon fill="#ffffb3" stroke="#000000" points="1673.6094,-122 1528.3906,-122 1528.3906,-86 1673.6094,-86 1673.6094,-122"/>
<text text-anchor="middle" x="1601" y="-99.8" font-family="Times,serif" font-size="14.00" fill="#000000">LoginFormComponent</text>
</g>
<!-- LoginFormComponent&#45;&gt;RootModule -->
<g id="edge3" class="edge">
<title>LoginFormComponent&#45;&gt;RootModule</title>
<path fill="none" stroke="#000000" d="M1601,-122.2228C1601,-142.3652 1601,-172 1601,-172 1601,-172 1023.3712,-172 1023.3712,-172"/>
<polygon fill="#000000" stroke="#000000" points="1023.3712,-168.5001 1013.3712,-172 1023.3712,-175.5001 1023.3712,-168.5001"/>
</g>
<!-- NavHeaderComponent -->
<g id="node4" class="node">
<title>NavHeaderComponent</title>
<polygon fill="#ffffb3" stroke="#000000" points="1510.5646,-122 1365.4354,-122 1365.4354,-86 1510.5646,-86 1510.5646,-122"/>
<text text-anchor="middle" x="1438" y="-99.8" font-family="Times,serif" font-size="14.00" fill="#000000">NavHeaderComponent</text>
</g>
<!-- NavHeaderComponent&#45;&gt;RootModule -->
<g id="edge4" class="edge">
<title>NavHeaderComponent&#45;&gt;RootModule</title>
<path fill="none" stroke="#000000" d="M1438,-122.2222C1438,-140.8285 1438,-167 1438,-167 1438,-167 1023.608,-167 1023.608,-167"/>
<polygon fill="#000000" stroke="#000000" points="1023.6081,-163.5001 1013.608,-167 1023.608,-170.5001 1023.6081,-163.5001"/>
</g>
<!-- RegisterComponent -->
<g id="node5" class="node">
<title>RegisterComponent</title>
<polygon fill="#ffffb3" stroke="#000000" points="1346.9846,-122 1219.0154,-122 1219.0154,-86 1346.9846,-86 1346.9846,-122"/>
<text text-anchor="middle" x="1283" y="-99.8" font-family="Times,serif" font-size="14.00" fill="#000000">RegisterComponent</text>
</g>
<!-- RegisterComponent&#45;&gt;RootModule -->
<g id="edge5" class="edge">
<title>RegisterComponent&#45;&gt;RootModule</title>
<path fill="none" stroke="#000000" d="M1283,-122.0336C1283,-139.0597 1283,-162 1283,-162 1283,-162 1023.5213,-162 1023.5213,-162"/>
<polygon fill="#000000" stroke="#000000" points="1023.5213,-158.5001 1013.5213,-162 1023.5213,-165.5001 1023.5213,-158.5001"/>
</g>
<!-- StaticSidebarComponent -->
<g id="node6" class="node">
<title>StaticSidebarComponent</title>
<polygon fill="#ffffb3" stroke="#000000" points="1200.979,-122 1045.021,-122 1045.021,-86 1200.979,-86 1200.979,-122"/>
<text text-anchor="middle" x="1123" y="-99.8" font-family="Times,serif" font-size="14.00" fill="#000000">StaticSidebarComponent</text>
</g>
<!-- StaticSidebarComponent&#45;&gt;RootModule -->
<g id="edge6" class="edge">
<title>StaticSidebarComponent&#45;&gt;RootModule</title>
<path fill="none" stroke="#000000" d="M1123,-122.2396C1123,-137.5706 1123,-157 1123,-157 1123,-157 1023.4344,-157 1023.4344,-157"/>
<polygon fill="#000000" stroke="#000000" points="1023.4344,-153.5001 1013.4344,-157 1023.4344,-160.5001 1023.4344,-153.5001"/>
</g>
<!-- StockComponent -->
<g id="node7" class="node">
<title>StockComponent</title>
<polygon fill="#ffffb3" stroke="#000000" points="1026.7204,-122 913.2796,-122 913.2796,-86 1026.7204,-86 1026.7204,-122"/>
<text text-anchor="middle" x="970" y="-99.8" font-family="Times,serif" font-size="14.00" fill="#000000">StockComponent</text>
</g>
<!-- StockComponent&#45;&gt;RootModule -->
<g id="edge7" class="edge">
<title>StockComponent&#45;&gt;RootModule</title>
<path fill="none" stroke="#000000" d="M970,-122.1061C970,-122.1061 970,-140.991 970,-140.991"/>
<polygon fill="#000000" stroke="#000000" points="966.5001,-140.9909 970,-150.991 973.5001,-140.991 966.5001,-140.9909"/>
</g>
<!-- TableUpdateTimeComponent -->
<g id="node8" class="node">
<title>TableUpdateTimeComponent</title>
<polygon fill="#ffffb3" stroke="#000000" points="895.6797,-122 712.3203,-122 712.3203,-86 895.6797,-86 895.6797,-122"/>
<text text-anchor="middle" x="804" y="-99.8" font-family="Times,serif" font-size="14.00" fill="#000000">TableUpdateTimeComponent</text>
</g>
<!-- TableUpdateTimeComponent&#45;&gt;RootModule -->
<g id="edge8" class="edge">
<title>TableUpdateTimeComponent&#45;&gt;RootModule</title>
<path fill="none" stroke="#000000" d="M804,-122.2396C804,-137.5706 804,-157 804,-157 804,-157 916.3855,-157 916.3855,-157"/>
<polygon fill="#000000" stroke="#000000" points="916.3855,-160.5001 926.3855,-157 916.3854,-153.5001 916.3855,-160.5001"/>
</g>
<!-- AppComponent  -->
<g id="node12" class="node">
<title>AppComponent </title>
<polygon fill="#fb8072" stroke="#000000" points="1024.439,-252 915.561,-252 915.561,-216 1024.439,-216 1024.439,-252"/>
<text text-anchor="middle" x="970" y="-229.8" font-family="Times,serif" font-size="14.00" fill="#000000">AppComponent </text>
</g>
<!-- RootModule&#45;&gt;AppComponent  -->
<g id="edge11" class="edge">
<title>RootModule&#45;&gt;AppComponent </title>
<path fill="none" stroke="#000000" stroke-dasharray="5,2" d="M955.5372,-187.1061C955.5372,-187.1061 955.5372,-205.991 955.5372,-205.991"/>
<polygon fill="#000000" stroke="#000000" points="952.0373,-205.9909 955.5372,-215.991 959.0373,-205.991 952.0373,-205.9909"/>
</g>
<!-- RootModule&#45;&gt;AppComponent  -->
<g id="edge12" class="edge">
<title>RootModule&#45;&gt;AppComponent </title>
<path fill="none" stroke="#000000" stroke-dasharray="1,5" d="M984.4628,-187.1061C984.4628,-187.1061 984.4628,-205.991 984.4628,-205.991"/>
<polygon fill="#000000" stroke="#000000" points="980.9629,-205.9909 984.4628,-215.991 987.9629,-205.991 980.9629,-205.9909"/>
</g>
<!-- RootRoutingModule -->
<g id="node10" class="node">
<title>RootRoutingModule</title>
<polygon fill="#8dd3c7" stroke="#000000" points="687.8948,-122 684.8948,-126 663.8948,-126 660.8948,-122 556.1052,-122 556.1052,-86 687.8948,-86 687.8948,-122"/>
<text text-anchor="middle" x="622" y="-99.8" font-family="Times,serif" font-size="14.00" fill="#000000">RootRoutingModule</text>
</g>
<!-- RootRoutingModule&#45;&gt;RootModule -->
<g id="edge9" class="edge">
<title>RootRoutingModule&#45;&gt;RootModule</title>
<path fill="none" stroke="#000000" d="M622,-122.0336C622,-139.0597 622,-162 622,-162 622,-162 916.6292,-162 916.6292,-162"/>
<polygon fill="#000000" stroke="#000000" points="916.6292,-165.5001 926.6292,-162 916.6292,-158.5001 916.6292,-165.5001"/>
</g>
<!-- SharedModule -->
<g id="node11" class="node">
<title>SharedModule</title>
<polygon fill="#8dd3c7" stroke="#000000" points="538.4231,-122 535.4231,-126 514.4231,-126 511.4231,-122 439.5769,-122 439.5769,-86 538.4231,-86 538.4231,-122"/>
<text text-anchor="middle" x="489" y="-99.8" font-family="Times,serif" font-size="14.00" fill="#000000">SharedModule</text>
</g>
<!-- SharedModule&#45;&gt;RootModule -->
<g id="edge10" class="edge">
<title>SharedModule&#45;&gt;RootModule</title>
<path fill="none" stroke="#000000" d="M489,-122.2222C489,-140.8285 489,-167 489,-167 489,-167 916.4661,-167 916.4661,-167"/>
<polygon fill="#000000" stroke="#000000" points="916.4661,-170.5001 926.4661,-167 916.4661,-163.5001 916.4661,-170.5001"/>
</g>
<!-- AuthService -->
<g id="node13" class="node">
<title>AuthService</title>
<ellipse fill="#fdb462" stroke="#000000" cx="357" cy="-104" rx="59.1083" ry="18"/>
<text text-anchor="middle" x="357" y="-99.8" font-family="Times,serif" font-size="14.00" fill="#000000">AuthService</text>
</g>
<!-- AuthService&#45;&gt;RootModule -->
<g id="edge13" class="edge">
<title>AuthService&#45;&gt;RootModule</title>
<path fill="none" stroke="#000000" d="M357,-122.2228C357,-142.3652 357,-172 357,-172 357,-172 916.406,-172 916.406,-172"/>
<polygon fill="#000000" stroke="#000000" points="916.406,-175.5001 926.406,-172 916.4059,-168.5001 916.406,-175.5001"/>
</g>
<!-- Interceptor -->
<g id="node14" class="node">
<title>Interceptor</title>
<ellipse fill="#fdb462" stroke="#000000" cx="226" cy="-104" rx="53.2878" ry="18"/>
<text text-anchor="middle" x="226" y="-99.8" font-family="Times,serif" font-size="14.00" fill="#000000">Interceptor</text>
</g>
<!-- Interceptor&#45;&gt;RootModule -->
<g id="edge14" class="edge">
<title>Interceptor&#45;&gt;RootModule</title>
<path fill="none" stroke="#000000" d="M226,-122.0449C226,-143.6623 226,-177 226,-177 226,-177 916.5107,-177 916.5107,-177"/>
<polygon fill="#000000" stroke="#000000" points="916.5107,-180.5001 926.5107,-177 916.5106,-173.5001 916.5107,-180.5001"/>
</g>
<!-- TokenStorage -->
<g id="node15" class="node">
<title>TokenStorage</title>
<ellipse fill="#fdb462" stroke="#000000" cx="89" cy="-104" rx="65.4111" ry="18"/>
<text text-anchor="middle" x="89" y="-99.8" font-family="Times,serif" font-size="14.00" fill="#000000">TokenStorage</text>
</g>
<!-- TokenStorage&#45;&gt;RootModule -->
<g id="edge15" class="edge">
<title>TokenStorage&#45;&gt;RootModule</title>
<path fill="none" stroke="#000000" d="M89,-122.0908C89,-145.1328 89,-182 89,-182 89,-182 916.6116,-182 916.6116,-182"/>
<polygon fill="#000000" stroke="#000000" points="916.6116,-185.5001 926.6116,-182 916.6115,-178.5001 916.6116,-185.5001"/>
</g>
</g>
</svg>
